<?xml version="1.0" encoding="UTF-8" standalone="no"?>
<!-- Created with Inkscape (http://www.inkscape.org/) -->

<svg
   width="112.97708mm"
   height="79.110413mm"
   viewBox="0 0 112.97708 79.110414"
   version="1.1"
   id="svg1"
   xml:space="preserve"
   inkscape:export-filename="비트맵2.svg"
   inkscape:export-xdpi="96"
   inkscape:export-ydpi="96"
   xmlns:inkscape="http://www.inkscape.org/namespaces/inkscape"
   xmlns:sodipodi="http://sodipodi.sourceforge.net/DTD/sodipodi-0.dtd"
   xmlns="http://www.w3.org/2000/svg"
   xmlns:svg="http://www.w3.org/2000/svg"><sodipodi:namedview
     id="namedview1"
     pagecolor="#ffffff"
     bordercolor="#000000"
     borderopacity="0.25"
     inkscape:showpageshadow="2"
     inkscape:pageopacity="0.0"
     inkscape:pagecheckerboard="0"
     inkscape:deskcolor="#d1d1d1"
     inkscape:document-units="mm"><inkscape:page
       x="0"
       y="0"
       width="112.97708"
       height="79.11042"
       id="page2"
       margin="0"
       bleed="0" /></sodipodi:namedview><defs
     id="defs1" /><g
     inkscape:label="Layer 1"
     inkscape:groupmode="layer"
     id="layer1"
     transform="translate(-46.9355,-102.29998)"><g
       id="g1"
       transform="matrix(0.26458333,0,0,0.26458333,35.690708,74.121859)"><path
         fill="#000000"
         stroke="#000000"
         stroke-width="1"
         opacity="0"
         d="M 0,0 H 512 V 512 H 0 Z m 96,107 q -20,4 -31,15 -17,13 -22,38 v 193 q 4,19 15,31 14,16 39,21 h 191 l 12,-3 q 11,-4 20,-12 12,-10 18,-26 l 3,-12 v -18 h 3 l 69,35 8,2 17,-1 q 10,-3 17,-9 10,-9 14,-24 V 176 q -2,-12 -9,-19 -9,-13 -27,-16 h -12 l -8,2 -69,35 h -3 v -18 l -2,-8 q -5,-14 -13,-23 -13,-17 -37,-22 z"
         id="path1" /><path
         fill="#000000"
         stroke="#000000"
         stroke-width="1"
         opacity="0.670588"
         d="m 95.5,107 3.5,0.5 -3.5,0.5 z"
         id="path2"
         style="fill:#ffd966;fill-opacity:1;stroke:#ffd966;stroke-opacity:1" /><path
         fill="#000000"
         stroke="#000000"
         stroke-width="1"
         opacity="0.670588"
         d="m 285.5,107 3.5,0.5 -3.5,0.5 z"
         id="path3"
         style="fill:#ffd966;fill-opacity:1;stroke:#ffd966;stroke-opacity:1" /><path
         fill="#000000"
         stroke="#000000"
         stroke-width="1"
         opacity="0.670588"
         d="m 72.5,116 -1,2 z"
         id="path4"
         style="fill:#ffd966;fill-opacity:1;stroke:#ffd966;stroke-opacity:1" /><path
         fill="#000000"
         stroke="#000000"
         stroke-width="1"
         opacity="0.670588"
         d="m 311.5,116 1,2 z"
         id="path5"
         style="fill:#ffd966;fill-opacity:1;stroke:#ffd966;stroke-opacity:1" /><path
         fill="#000000"
         stroke="#000000"
         stroke-width="1"
         opacity="0.670588"
         d="m 69.5,118 -1,2 z"
         id="path6"
         style="fill:#ffd966;fill-opacity:1;stroke:#ffd966;stroke-opacity:1" /><path
         fill="#000000"
         stroke="#000000"
         stroke-width="1"
         opacity="0.670588"
         d="m 314.5,118 1,2 z"
         id="path7"
         style="fill:#ffd966;fill-opacity:1;stroke:#ffd966;stroke-opacity:1" /><path
         fill="#000000"
         stroke="#000000"
         stroke-width="1"
         opacity="0.670588"
         d="m 64.5,122 -6,7 z"
         id="path8"
         style="fill:#ffd966;fill-opacity:1;stroke:#ffd966;stroke-opacity:1" /><path
         fill="#000000"
         stroke="#000000"
         stroke-width="1"
         opacity="0.670588"
         d="m 319.5,122 6,7 z"
         id="path9"
         style="fill:#ffd966;fill-opacity:1;stroke:#ffd966;stroke-opacity:1" /><path
         fill="#000000"
         stroke="#000000"
         stroke-width="1"
         opacity="0.670588"
         d="m 327.5,131 2,3 z"
         id="path10"
         style="fill:#ffd966;fill-opacity:1;stroke:#ffd966;stroke-opacity:1" /><path
         fill="#000000"
         stroke="#000000"
         stroke-width="1"
         opacity="0.670588"
         d="m 55.5,132 -1,2 z"
         id="path11"
         style="fill:#ffd966;fill-opacity:1;stroke:#ffd966;stroke-opacity:1" /><path
         fill="#000000"
         stroke="#000000"
         stroke-width="1"
         opacity="0.670588"
         d="m 53.5,135 -1,2 z"
         id="path12"
         style="fill:#ffd966;fill-opacity:1;stroke:#ffd966;stroke-opacity:1" /><path
         fill="#000000"
         stroke="#000000"
         stroke-width="1"
         opacity="0.670588"
         d="m 330.5,135 1,2 z"
         id="path13"
         style="fill:#ffd966;fill-opacity:1;stroke:#ffd966;stroke-opacity:1" /><path
         fill="#000000"
         stroke="#000000"
         stroke-width="1"
         opacity="0.670588"
         d="m 420.5,141 4.5,0.5 -4.5,0.5 z"
         id="path14"
         style="fill:#ffd966;fill-opacity:1;stroke:#ffd966;stroke-opacity:1" /><path
         fill="#000000"
         stroke="#000000"
         stroke-width="1"
         opacity="0.670588"
         d="m 428.5,141 4.5,0.5 -4.5,0.5 z"
         id="path15"
         style="fill:#ffd966;fill-opacity:1;stroke:#ffd966;stroke-opacity:1" /><path
         fill="#000000"
         stroke="#000000"
         stroke-width="1"
         opacity="0.670588"
         d="m 447.5,146 1,2 z"
         id="path16"
         style="fill:#ffd966;fill-opacity:1;stroke:#ffd966;stroke-opacity:1" /><path
         fill="#000000"
         stroke="#000000"
         stroke-width="1"
         opacity="0.670588"
         d="m 450.5,148 1,2 z"
         id="path17"
         style="fill:#ffd966;fill-opacity:1;stroke:#ffd966;stroke-opacity:1" /><path
         fill="#000000"
         stroke="#000000"
         stroke-width="1"
         opacity="0.670588"
         d="m 454.5,151 5,6 z"
         id="path18"
         style="fill:#ffd966;fill-opacity:1;stroke:#ffd966;stroke-opacity:1" /><path
         fill="#000000"
         stroke="#000000"
         stroke-width="1"
         opacity="0.670588"
         d="m 43.5,159 0.5,3.5 h -1 z"
         id="path19"
         style="fill:#ffd966;fill-opacity:1;stroke:#ffd966;stroke-opacity:1" /><path
         fill="#000000"
         stroke="#000000"
         stroke-width="1"
         opacity="0.670588"
         d="m 340.5,159 0.5,3.5 h -1 z"
         id="path20"
         style="fill:#ffd966;fill-opacity:1;stroke:#ffd966;stroke-opacity:1" /><path
         fill="#000000"
         stroke="#000000"
         stroke-width="1"
         opacity="0.670588"
         d="m 461.5,159 1,2 z"
         id="path21"
         style="fill:#ffd966;fill-opacity:1;stroke:#ffd966;stroke-opacity:1" /><path
         fill="#000000"
         stroke="#000000"
         stroke-width="1"
         opacity="0.670588"
         d="m 43.5,349 0.5,3.5 h -1 z"
         id="path22"
         style="fill:#ffd966;fill-opacity:1;stroke:#ffd966;stroke-opacity:1" /><path
         fill="#000000"
         stroke="#000000"
         stroke-width="1"
         opacity="0.670588"
         d="m 340.5,349 0.5,2.5 h -1 z"
         id="path23"
         style="fill:#ffd966;fill-opacity:1;stroke:#ffd966;stroke-opacity:1" /><path
         fill="#000000"
         stroke="#000000"
         stroke-width="1"
         opacity="0.670588"
         d="m 462.5,351 -1,2 z"
         id="path24"
         style="fill:#ffd966;fill-opacity:1;stroke:#ffd966;stroke-opacity:1" /><path
         fill="#000000"
         stroke="#000000"
         stroke-width="1"
         opacity="0.670588"
         d="m 459.5,355 -5,6 z"
         id="path25"
         style="fill:#ffd966;fill-opacity:1;stroke:#ffd966;stroke-opacity:1" /><path
         fill="#000000"
         stroke="#000000"
         stroke-width="1"
         opacity="0.670588"
         d="m 451.5,362 -1,2 z"
         id="path26"
         style="fill:#ffd966;fill-opacity:1;stroke:#ffd966;stroke-opacity:1" /><path
         fill="#000000"
         stroke="#000000"
         stroke-width="1"
         opacity="0.670588"
         d="m 448.5,364 -1,2 z"
         id="path27"
         style="fill:#ffd966;fill-opacity:1;stroke:#ffd966;stroke-opacity:1" /><path
         fill="#000000"
         stroke="#000000"
         stroke-width="1"
         opacity="0.670588"
         d="m 415.5,369 2.5,0.5 -2.5,0.5 z"
         id="path28"
         style="fill:#ffd966;fill-opacity:1;stroke:#ffd966;stroke-opacity:1" /><path
         fill="#000000"
         stroke="#000000"
         stroke-width="1"
         opacity="0.670588"
         d="m 420.5,370 5.5,0.5 -5.5,0.5 z"
         id="path29"
         style="fill:#ffd966;fill-opacity:1;stroke:#ffd966;stroke-opacity:1" /><path
         fill="#000000"
         stroke="#000000"
         stroke-width="1"
         opacity="0.670588"
         d="m 427.5,370 5.5,0.5 -5.5,0.5 z"
         id="path30"
         style="fill:#ffd966;fill-opacity:1;stroke:#ffd966;stroke-opacity:1" /><path
         fill="#000000"
         stroke="#000000"
         stroke-width="1"
         opacity="0.670588"
         d="m 52.5,375 1,2 z"
         id="path31"
         style="fill:#ffd966;fill-opacity:1;stroke:#ffd966;stroke-opacity:1" /><path
         fill="#000000"
         stroke="#000000"
         stroke-width="1"
         opacity="0.670588"
         d="m 331.5,375 -1,2 z"
         id="path32"
         style="fill:#ffd966;fill-opacity:1;stroke:#ffd966;stroke-opacity:1" /><path
         fill="#000000"
         stroke="#000000"
         stroke-width="1"
         opacity="0.670588"
         d="m 54.5,378 1,2 z"
         id="path33"
         style="fill:#ffd966;fill-opacity:1;stroke:#ffd966;stroke-opacity:1" /><path
         fill="#000000"
         stroke="#000000"
         stroke-width="1"
         opacity="0.670588"
         d="m 329.5,378 -2,3 z"
         id="path34"
         style="fill:#ffd966;fill-opacity:1;stroke:#ffd966;stroke-opacity:1" /><path
         fill="#000000"
         stroke="#000000"
         stroke-width="1"
         opacity="0.670588"
         d="m 58.5,383 6,7 z"
         id="path35"
         style="fill:#ffd966;fill-opacity:1;stroke:#ffd966;stroke-opacity:1" /><path
         fill="#000000"
         stroke="#000000"
         stroke-width="1"
         opacity="0.670588"
         d="m 325.5,383 -6,7 z"
         id="path36"
         style="fill:#ffd966;fill-opacity:1;stroke:#ffd966;stroke-opacity:1" /><path
         fill="#000000"
         stroke="#000000"
         stroke-width="1"
         opacity="0.670588"
         d="m 67.5,391 2,3 z"
         id="path37"
         style="fill:#ffd966;fill-opacity:1;stroke:#ffd966;stroke-opacity:1" /><path
         fill="#000000"
         stroke="#000000"
         stroke-width="1"
         opacity="0.670588"
         d="m 315.5,392 -1,2 z"
         id="path38"
         style="fill:#ffd966;fill-opacity:1;stroke:#ffd966;stroke-opacity:1" /><path
         fill="#000000"
         stroke="#000000"
         stroke-width="1"
         opacity="0.670588"
         d="m 71.5,394 1,2 z"
         id="path39"
         style="fill:#ffd966;fill-opacity:1;stroke:#ffd966;stroke-opacity:1" /><path
         fill="#000000"
         stroke="#000000"
         stroke-width="1"
         opacity="0.670588"
         d="m 312.5,394 -1,2 z"
         id="path40"
         style="fill:#ffd966;fill-opacity:1;stroke:#ffd966;stroke-opacity:1" /><path
         fill="#000000"
         stroke="#000000"
         stroke-width="1"
         opacity="0.670588"
         d="m 96.5,404 2.5,0.5 -2.5,0.5 z"
         id="path41"
         style="fill:#ffd966;fill-opacity:1;stroke:#ffd966;stroke-opacity:1" /><path
         fill="#000000"
         stroke="#000000"
         stroke-width="1"
         opacity="0.670588"
         d="m 285.5,404 2.5,0.5 -2.5,0.5 z"
         id="path42"
         style="fill:#ffd966;fill-opacity:1;stroke:#ffd966;stroke-opacity:1" /><path
         fill="#000000"
         stroke="#000000"
         stroke-width="1"
         opacity="0.996078"
         d="m 67.5,120 -2,3 z"
         id="path43"
         style="fill:#ffd966;fill-opacity:1;stroke:#ffd966;stroke-opacity:1" /><path
         fill="#000000"
         stroke="#000000"
         stroke-width="1"
         opacity="0.996078"
         d="m 316.5,120 2,3 z"
         id="path44"
         style="fill:#ffd966;fill-opacity:1;stroke:#ffd966;stroke-opacity:1" /><path
         fill="#000000"
         stroke="#000000"
         stroke-width="1"
         opacity="0.996078"
         d="m 58.5,129 -2,3 z"
         id="path45"
         style="fill:#ffd966;fill-opacity:1;stroke:#ffd966;stroke-opacity:1" /><path
         fill="#000000"
         stroke="#000000"
         stroke-width="1"
         opacity="0.996078"
         d="m 325.5,129 1,2 z"
         id="path46"
         style="fill:#ffd966;fill-opacity:1;stroke:#ffd966;stroke-opacity:1" /><path
         fill="#000000"
         stroke="#000000"
         stroke-width="1"
         opacity="0.996078"
         d="m 425.5,141 2.5,0.5 -2.5,0.5 z"
         id="path47"
         style="fill:#ffd966;fill-opacity:1;stroke:#ffd966;stroke-opacity:1" /><path
         fill="#000000"
         stroke="#000000"
         stroke-width="1"
         opacity="0.996078"
         d="m 452.5,150 1,2 z"
         id="path48"
         style="fill:#ffd966;fill-opacity:1;stroke:#ffd966;stroke-opacity:1" /><path
         fill="#000000"
         stroke="#000000"
         stroke-width="1"
         opacity="0.996078"
         d="m 459.5,157 1,2 z"
         id="path49"
         style="fill:#ffd966;fill-opacity:1;stroke:#ffd966;stroke-opacity:1" /><path
         fill="#000000"
         stroke="#000000"
         stroke-width="1"
         opacity="0.996078"
         d="m 460.5,353 -1,2 z"
         id="path50"
         style="fill:#ffd966;fill-opacity:1;stroke:#ffd966;stroke-opacity:1" /><path
         fill="#000000"
         stroke="#000000"
         stroke-width="1"
         opacity="0.996078"
         d="m 453.5,360 -1,2 z"
         id="path51"
         style="fill:#ffd966;fill-opacity:1;stroke:#ffd966;stroke-opacity:1" /><path
         fill="#000000"
         stroke="#000000"
         stroke-width="1"
         opacity="0.996078"
         d="m 56.5,380 3,4 z"
         id="path52"
         style="fill:#ffd966;fill-opacity:1;stroke:#ffd966;stroke-opacity:1" /><path
         fill="#000000"
         stroke="#000000"
         stroke-width="1"
         opacity="0.996078"
         d="m 326.5,381 -2,3 z"
         id="path53"
         style="fill:#ffd966;fill-opacity:1;stroke:#ffd966;stroke-opacity:1" /><path
         fill="#000000"
         stroke="#000000"
         stroke-width="1"
         opacity="0.996078"
         d="m 64.5,388 2,3 z"
         id="path54"
         style="fill:#ffd966;fill-opacity:1;stroke:#ffd966;stroke-opacity:1" /><path
         fill="#000000"
         stroke="#000000"
         stroke-width="1"
         opacity="0.996078"
         d="m 319.5,388 -3,4 z"
         id="path55"
         style="fill:#ffd966;fill-opacity:1;stroke:#ffd966;stroke-opacity:1" /><path
         fill="#000000"
         stroke="#000000"
         stroke-width="1"
         opacity="1"
         d="m 100.5,107 h 183 l 10,2 13,5 q 10.7,5.8 18.5,14.5 9.6,10.4 14,26 l 2,10 V 179 l 68.5,-34 10,-3 h 15 q 15.7,3.8 24.5,14.5 l 6,9 4,14 v 153 l -4,14 -10.5,13.5 -16,9 q -7.5,2.5 -19,1 l -10,-3 -68.5,-34 v 14.5 l -4,16 q -5.7,14.8 -16.5,24.5 l -18,12 -19,5 h -183 l -10,-2 -13,-5 -17.5,-13.5 -12,-18 -5,-19 v -183 l 2,-10 5,-13 Q 55.8,130.8 64.5,123 l 15,-10 z"
         id="path56"
         style="fill:#ffd966;fill-opacity:1;stroke:#ffd966;stroke-opacity:1" /></g></g></svg>
