<?xml version="1.0" encoding="utf-8"?>
<svg xmlns="http://www.w3.org/2000/svg" viewBox="-540.3188 -0.161 1058.499 341.008" width="1058.5px" height="341.008px" preserveAspectRatio="none"><g transform="matrix(0.9999999999999999, 0, 0, 0.9999999999999999, 386.521240234375, -197.00804138183594)" id="object-0"><path fill="rgb(227,240,244)" stroke="rgb(227,240,244)" stroke-width="1" opacity="1" d="M -52.841 215.855 L -36.841 232.855 L -30.341 238.355 L -33.341 238.355 L -32.341 237.355 L -35.841 233.855 L -48.341 222.355 L -52.841 215.855 Z" style="stroke-width: 1;"/><path fill="rgb(227,240,244)" stroke="rgb(227,240,244)" stroke-width="1" opacity="1" d="M -509.84 236.855 L -500.34 247.355 L -501.34 247.355 L -509.84 236.855 Z" style="stroke-width: 1;"/><path fill="rgb(227,240,244)" stroke="rgb(227,240,244)" stroke-width="1" opacity="1" d="M -29.841 239.855 L 8.659 281.355 C -3.001 298.355 -13.671 316.355 -23.341 335.355 C -39.871 357.155 -57.701 377.655 -76.841 396.855 L -76.341 395.355 C -66.741 368.289 -55.401 342.955 -42.341 319.355 L -24.341 287.355 L -9.341 264.355 L -9.341 262.355 L -29.841 239.855 Z" style="stroke-width: 1;"/><path fill="rgb(227,240,244)" stroke="rgb(227,240,244)" stroke-width="1" opacity="1" d="M -497.84 248.855 L -465.34 283.355 L -506.34 342.355 L -560.84 433.855 L -585.34 430.855 L -585.34 428.355 L -579.34 417.355 L -538.34 347.355 L -483.34 264.355 L -497.84 248.855 Z" style="stroke-width: 1;"/><path fill="rgb(227,240,244)" stroke="rgb(227,240,244)" stroke-width="1" opacity="1" d="M -658.84 259.855 L -656.84 262.855 C -657.97 260.789 -659.13 260.289 -660.34 261.355 L -658.84 259.855 Z" style="stroke-width: 1;"/><path fill="rgb(227,240,244)" stroke="rgb(227,240,244)" stroke-width="1" opacity="1" d="M -654.84 262.855 L -652.84 265.855 L -654.84 262.855 Z" style="stroke-width: 1;"/><path fill="rgb(227,240,244)" stroke="rgb(227,240,244)" stroke-width="1" opacity="1" d="M -650.84 265.855 L -645.34 270.355 L -647.84 268.855 L -650.84 265.855 Z" style="stroke-width: 1;"/><path fill="rgb(227,240,244)" stroke="rgb(227,240,244)" stroke-width="1" opacity="1" d="M -643.84 270.855 L -640.34 272.855 L -640.84 275.855 L -643.84 270.855 Z" style="stroke-width: 1;"/><path fill="rgb(227,240,244)" stroke="rgb(227,240,244)" stroke-width="1" opacity="1" d="M -193.84 272.855 L -181.84 285.855 L -193.84 272.855 Z" style="stroke-width: 1;"/><path fill="rgb(227,240,244)" stroke="rgb(227,240,244)" stroke-width="1" opacity="1" d="M 114.159 277.855 L 131.659 295.355 L 130.659 296.355 C 95.459 362.822 52.299 421.322 1.159 471.855 C -20.771 494.255 -44.771 514.589 -70.841 532.855 L -112.34 494.355 L -110.84 494.855 L -88.841 514.855 C -55.841 491.855 -26.001 465.689 0.659 436.355 C 23.259 412.289 44.259 386.622 63.659 359.355 L 82.659 331.355 L 114.159 277.855 Z" style="stroke-width: 1;"/><path fill="rgb(227,240,244)" stroke="rgb(227,240,244)" stroke-width="1" opacity="1" d="M -642.34 278.855 L -639.84 278.855 L -623.34 291.355 L -623.34 294.355 L -631.34 316.355 L -644.34 343.355 L -674.84 392.855 L -720.34 367.355 L -718.34 361.355 L -718.84 359.855 L -692.84 374.855 C -671.5 346.989 -654.66 314.989 -642.34 278.855 Z" style="stroke-width: 1;"/><path fill="rgb(227,240,244)" stroke="rgb(227,240,244)" stroke-width="1" opacity="1" d="M -270.14 294.859 C -249.47 306.526 -230.64 320.026 -213.64 335.359 L -215.14 334.859 L -223.14 331.859 L -247.14 314.859 L -252.14 312.859 L -260.14 317.859 L -263.64 317.859 L -265.14 320.859 C -276.14 327.793 -285.97 335.959 -294.64 345.359 C -306.3 357.693 -316.64 371.359 -325.64 386.359 L -338.64 409.359 L -347.64 432.359 L -350.14 434.859 C -357.67 440.526 -366.17 444.859 -375.64 447.859 C -361.77 392.259 -336.27 347.926 -299.14 314.859 L -270.14 294.859 Z" style="stroke-width: 1;"/><path fill="rgb(227,240,244)" stroke="rgb(227,240,244)" stroke-width="1" opacity="1" d="M -133.84 286.855 L -132.34 290.355 L -133.34 290.355 L -133.84 286.855 Z" style="stroke-width: 1;"/><path fill="rgb(227,240,244)" stroke="rgb(227,240,244)" stroke-width="1" opacity="1" d="M -736.84 290.855 L -735.34 291.355 L -756.34 331.355 L -750.34 334.855 L -754.34 341.355 L -774.34 364.355 L -785.34 380.355 L -802.34 411.355 L -807.34 425.855 L -832.34 429.855 L -831.34 423.355 L -821.34 396.355 L -800.34 358.355 C -786.34 337.689 -770.16 319.189 -751.84 302.855 L -736.84 290.855 Z" style="stroke-width: 1;"/><path fill="rgb(227,240,244)" stroke="rgb(227,240,244)" stroke-width="1" opacity="1" d="M -177.34 291.855 L -174.84 291.855 L -158.34 308.355 L -181.34 375.355 L -202.34 420.355 C -215.6 444.755 -232.1 465.922 -251.84 483.855 C -266.64 497.389 -283.64 508.722 -302.84 517.855 L -339.84 531.855 L -354.84 535.855 L -368.84 537.855 L -427.34 484.355 L -437.34 473.355 L -433.84 475.855 L -429.34 479.355 L -421.84 487.855 L -420.34 487.355 L -421.34 488.355 L -416.84 492.855 L -408.84 499.855 L -407.34 499.355 L -408.34 500.355 L -403.84 504.855 L -385.84 520.855 L -356.84 513.855 L -317.84 498.855 C -294.1 486.922 -273.6 471.755 -256.34 453.355 C -244.34 440.355 -233.67 426.022 -224.34 410.355 C -214.34 393.022 -205.5 374.522 -197.84 354.855 L -179.84 360.855 L -186.84 352.855 L -194.84 346.855 L -196.84 350.855 L -197.34 349.355 L -194.34 345.355 L -177.34 291.855 Z" style="stroke-width: 1;"/><path fill="rgb(227,240,244)" stroke="rgb(227,240,244)" stroke-width="1" opacity="1" d="M -130.84 293.855 L -129.34 297.355 L -130.34 297.355 L -130.84 293.855 Z" style="stroke-width: 1;"/><path fill="rgb(227,240,244)" stroke="rgb(227,240,244)" stroke-width="1" opacity="1" d="M -127.84 300.855 L -126.34 304.355 L -127.34 304.355 L -127.84 300.855 Z" style="stroke-width: 1;"/><path fill="rgb(227,240,244)" stroke="rgb(227,240,244)" stroke-width="1" opacity="1" d="M -212.84 328.855 L -196.34 343.355 L -198.84 343.855 L -202.34 342.355 L -201.34 341.355 L -204.84 337.855 L -213.34 331.355 L -212.84 328.855 Z" style="stroke-width: 1;"/><path fill="rgb(227,240,244)" stroke="rgb(227,240,244)" stroke-width="1" opacity="1" d="M -206.84 339.855 L -203.34 341.355 L -204.84 341.855 L -206.84 339.855 Z" style="stroke-width: 1;"/><path fill="rgb(227,240,244)" stroke="rgb(227,240,244)" stroke-width="1" opacity="1" d="M -735.84 342.855 L -735.34 344.355 L -737.34 345.355 L -735.84 342.855 Z" style="stroke-width: 1;"/><path fill="rgb(227,240,244)" stroke="rgb(227,240,244)" stroke-width="1" opacity="1" d="M -734.84 350.855 L -729.34 354.355 L -730.84 353.855 C -733.5 353.522 -734.84 352.522 -734.84 350.855 Z" style="stroke-width: 1;"/><path fill="rgb(227,240,244)" stroke="rgb(227,240,244)" stroke-width="1" opacity="1" d="M -725.84 355.855 L -720.34 359.355 L -721.84 358.855 C -724.5 358.522 -725.84 357.522 -725.84 355.855 Z" style="stroke-width: 1;"/><path fill="rgb(227,240,244)" stroke="rgb(227,240,244)" stroke-width="1" opacity="1" d="M -722.84 419.855 C -720.63 419.122 -719.79 419.622 -720.34 421.355 L -721.84 420.855 L -726.84 422.855 L -726.84 421.855 L -722.84 419.855 Z" style="stroke-width: 1;"/><path fill="rgb(227,240,244)" stroke="rgb(227,240,244)" stroke-width="1" opacity="1" d="M -146.84 419.855 L -144.34 422.355 L -144.84 424.855 C -147.3 424.055 -147.97 422.389 -146.84 419.855 Z" style="stroke-width: 1;"/><path fill="rgb(227,240,244)" stroke="rgb(227,240,244)" stroke-width="1" opacity="1" d="M -142.84 424.855 L -136.34 429.355 L -136.84 431.855 L -142.84 424.855 Z" style="stroke-width: 1;"/><path fill="rgb(227,240,244)" stroke="rgb(227,240,244)" stroke-width="1" opacity="1" d="M -134.84 431.855 L -128.34 436.355 L -129.34 437.355 L -125.84 441.855 L -129.34 440.855 L -129.34 438.355 L -134.84 431.855 Z" style="stroke-width: 1;"/><path fill="rgb(227,240,244)" stroke="rgb(227,240,244)" stroke-width="1" opacity="1" d="M -704.84 437.855 L -702.34 439.355 L -688.34 480.355 L -688.34 483.355 L -721.84 501.855 L -762.84 516.855 L -795.84 524.855 L -813.84 526.855 L -814.84 527.855 L -821.84 527.855 L -822.84 528.855 L -840.84 529.855 L -891.34 482.355 L -887.84 484.855 L -886.34 484.355 C -888.2 485.555 -887.7 486.722 -884.84 487.855 L -857.84 512.855 L -855.84 512.855 L -854.84 511.855 L -844.84 511.855 L -843.84 510.855 L -836.84 510.855 L -835.84 509.855 L -811.84 506.855 L -775.84 497.855 L -738.84 483.855 L -705.34 465.355 L -714.34 441.355 L -712.84 441.855 L -704.84 437.855 Z" style="stroke-width: 1;"/><path fill="rgb(227,240,244)" stroke="rgb(227,240,244)" stroke-width="1" opacity="1" d="M -667.84 452.855 L -663.34 458.355 L -668.34 454.355 L -667.84 452.855 Z" style="stroke-width: 1;"/><path fill="rgb(227,240,244)" stroke="rgb(227,240,244)" stroke-width="1" opacity="1" d="M -507.84 455.855 L -505.34 456.355 L -507.84 456.855 L -507.84 455.855 Z" style="stroke-width: 1;"/><path fill="rgb(227,240,244)" stroke="rgb(227,240,244)" stroke-width="1" opacity="1" d="M -501.84 456.855 L -496.34 457.355 L -501.84 457.855 L -501.84 456.855 Z" style="stroke-width: 1;"/><path fill="rgb(227,240,244)" stroke="rgb(227,240,244)" stroke-width="1" opacity="1" d="M -491.84 457.855 C -488.84 457.189 -487 457.689 -486.34 459.355 L -486.84 460.855 L -487.34 458.855 L -491.84 458.855 L -491.84 457.855 Z" style="stroke-width: 1;"/><path fill="rgb(227,240,244)" stroke="rgb(227,240,244)" stroke-width="1" opacity="1" d="M -661.84 458.855 L -656.34 463.355 L -652.34 468.355 L -661.84 458.855 Z" style="stroke-width: 1;"/><path fill="rgb(227,240,244)" stroke="rgb(227,240,244)" stroke-width="1" opacity="1" d="M -444.84 464.855 L -439.34 471.355 L -445.34 466.355 L -444.84 464.855 Z" style="stroke-width: 1;"/><path fill="rgb(227,240,244)" stroke="rgb(227,240,244)" stroke-width="1" opacity="1" d="M -906.84 465.855 L -896.34 475.355 L -897.84 475.855 L -906.84 465.855 Z" style="stroke-width: 1;"/><path fill="rgb(227,240,244)" stroke="rgb(227,240,244)" stroke-width="1" opacity="1" d="M -649.84 470.855 L -620.84 497.855 L -617.84 498.855 L -562.84 508.855 L -546.84 509.855 L -537.84 511.855 L -528.84 511.855 L -527.84 512.855 L -506.84 513.855 L -503.34 514.855 L -490.84 471.855 L -490.34 473.855 L -486.84 474.855 L -469.34 475.855 L -470.34 483.355 L -485.34 531.855 L -542.84 526.855 L -601.84 515.855 L -650.34 472.355 L -649.84 470.855 Z" style="stroke-width: 1;"/><path fill="rgb(227,240,244)" stroke="rgb(227,240,244)" stroke-width="1" opacity="1" d="M -129.84 475.855 L -123.34 481.355 L -122.34 483.355 L -129.84 475.855 Z" style="stroke-width: 1;"/><path fill="rgb(227,240,244)" stroke="rgb(227,240,244)" stroke-width="1" opacity="1" d="M -892.84 478.855 L -891.84 480.855 L -892.84 478.855 Z" style="stroke-width: 1;"/><path fill="rgb(227,240,244)" stroke="rgb(227,240,244)" stroke-width="1" opacity="1" d="M -118.84 485.855 L -111.34 492.355 L -112.84 492.855 L -118.84 485.855 Z" style="stroke-width: 1;"/><path fill="rgb(251,250,244)" stroke="rgb(251,250,244)" stroke-width="1" opacity="1" d="M -70.841 196.847 L -69.841 198.847 L -70.841 196.847 Z" style="stroke-width: 1;"/><path fill="rgb(251,250,244)" stroke="rgb(251,250,244)" stroke-width="1" opacity="1" d="M -731.84 201.847 L -730.84 203.847 L -731.84 201.847 Z" style="stroke-width: 1;"/><path fill="rgb(251,250,244)" stroke="rgb(251,250,244)" stroke-width="1" opacity="1" d="M -287.84 201.847 L -286.84 203.847 L -287.84 201.847 Z" style="stroke-width: 1;"/><path fill="rgb(251,250,244)" stroke="rgb(251,250,244)" stroke-width="1" opacity="1" d="M -728.84 203.847 L -726.84 206.855 L -728.84 203.847 Z" style="stroke-width: 1;"/><path fill="rgb(251,250,244)" stroke="rgb(251,250,244)" stroke-width="1" opacity="1" d="M -540.84 204.855 L -534.84 211.855 L -540.84 204.855 Z" style="stroke-width: 1;"/><path fill="rgb(251,250,244)" stroke="rgb(251,250,244)" stroke-width="1" opacity="1" d="M -63.841 204.855 L -53.841 215.855 L -63.841 204.855 Z" style="stroke-width: 1;"/><path fill="rgb(251,250,244)" stroke="rgb(251,250,244)" stroke-width="1" opacity="1" d="M -724.84 206.855 L -723.84 208.855 L -724.84 206.855 Z" style="stroke-width: 1;"/><path fill="rgb(251,250,244)" stroke="rgb(251,250,244)" stroke-width="1" opacity="1" d="M -543.84 206.855 L -544.84 208.855 L -543.84 206.855 Z" style="stroke-width: 1;"/><path fill="rgb(251,250,244)" stroke="rgb(251,250,244)" stroke-width="1" opacity="1" d="M -274.84 208.855 L -273.84 210.855 L -274.84 208.855 Z" style="stroke-width: 1;"/><path fill="rgb(251,250,244)" stroke="rgb(251,250,244)" stroke-width="1" opacity="1" d="M -720.84 209.855 L -719.84 211.855 L -720.84 209.855 Z" style="stroke-width: 1;"/><path fill="rgb(251,250,244)" stroke="rgb(251,250,244)" stroke-width="1" opacity="1" d="M -545.84 209.855 L -546.84 211.855 L -545.84 209.855 Z" style="stroke-width: 1;"/><path fill="rgb(251,250,244)" stroke="rgb(251,250,244)" stroke-width="1" opacity="1" d="M -717.84 211.855 L -716.84 213.855 L -717.84 211.855 Z" style="stroke-width: 1;"/><path fill="rgb(251,250,244)" stroke="rgb(251,250,244)" stroke-width="1" opacity="1" d="M -269.84 211.855 L -268.84 213.855 L -269.84 211.855 Z" style="stroke-width: 1;"/><path fill="rgb(251,250,244)" stroke="rgb(251,250,244)" stroke-width="1" opacity="1" d="M -760.84 212.855 L -761.84 214.855 L -760.84 212.855 Z" style="stroke-width: 1;"/><path fill="rgb(251,250,244)" stroke="rgb(251,250,244)" stroke-width="1" opacity="1" d="M -548.84 213.855 L -549.84 215.855 L -548.84 213.855 Z" style="stroke-width: 1;"/><path fill="rgb(251,250,244)" stroke="rgb(251,250,244)" stroke-width="1" opacity="1" d="M -311.84 213.855 L -312.84 215.855 L -311.84 213.855 Z" style="stroke-width: 1;"/><path fill="rgb(251,250,244)" stroke="rgb(251,250,244)" stroke-width="1" opacity="1" d="M -713.84 214.855 L -712.84 216.855 L -713.84 214.855 Z" style="stroke-width: 1;"/><path fill="rgb(251,250,244)" stroke="rgb(251,250,244)" stroke-width="1" opacity="1" d="M -264.84 214.855 L -263.84 216.855 L -264.84 214.855 Z" style="stroke-width: 1;"/><path fill="rgb(251,250,244)" stroke="rgb(251,250,244)" stroke-width="1" opacity="1" d="M -710.84 216.855 L -709.84 218.855 L -710.84 216.855 Z" style="stroke-width: 1;"/><path fill="rgb(251,250,244)" stroke="rgb(251,250,244)" stroke-width="1" opacity="1" d="M -550.84 216.855 L -551.84 218.855 L -550.84 216.855 Z" style="stroke-width: 1;"/><path fill="rgb(251,250,244)" stroke="rgb(251,250,244)" stroke-width="1" opacity="1" d="M -769.84 217.855 L -770.84 219.855 L -769.84 217.855 Z" style="stroke-width: 1;"/><path fill="rgb(251,250,244)" stroke="rgb(251,250,244)" stroke-width="1" opacity="1" d="M 51.159 218.855 L 50.159 220.855 L 51.159 218.855 Z" style="stroke-width: 1;"/><path fill="rgb(251,250,244)" stroke="rgb(251,250,244)" stroke-width="1" opacity="1" d="M -772.84 219.855 L -773.84 221.855 L -772.84 219.855 Z" style="stroke-width: 1;"/><path fill="rgb(251,250,244)" stroke="rgb(251,250,244)" stroke-width="1" opacity="1" d="M -706.84 219.855 L -705.84 221.855 L -706.84 219.855 Z" style="stroke-width: 1;"/><path fill="rgb(251,250,244)" stroke="rgb(251,250,244)" stroke-width="1" opacity="1" d="M -256.84 219.855 L -255.84 221.855 L -256.84 219.855 Z" style="stroke-width: 1;"/><path fill="rgb(251,250,244)" stroke="rgb(251,250,244)" stroke-width="1" opacity="1" d="M -553.84 220.855 L -554.84 222.855 L -553.84 220.855 Z" style="stroke-width: 1;"/><path fill="rgb(251,250,244)" stroke="rgb(251,250,244)" stroke-width="1" opacity="1" d="M -323.84 220.855 L -324.84 222.855 L -323.84 220.855 Z" style="stroke-width: 1;"/><path fill="rgb(251,250,244)" stroke="rgb(251,250,244)" stroke-width="1" opacity="1" d="M -775.84 221.855 L -776.84 223.855 L -775.84 221.855 Z" style="stroke-width: 1;"/><path fill="rgb(251,250,244)" stroke="rgb(251,250,244)" stroke-width="1" opacity="1" d="M -703.84 221.855 L -701.84 224.855 L -703.84 221.855 Z" style="stroke-width: 1;"/><path fill="rgb(251,250,244)" stroke="rgb(251,250,244)" stroke-width="1" opacity="1" d="M -253.84 221.855 L -252.84 223.855 L -253.84 221.855 Z" style="stroke-width: 1;"/><path fill="rgb(251,250,244)" stroke="rgb(251,250,244)" stroke-width="1" opacity="1" d="M -131.84 221.855 L -132.84 223.855 L -131.84 221.855 Z" style="stroke-width: 1;"/><path fill="rgb(251,250,244)" stroke="rgb(251,250,244)" stroke-width="1" opacity="1" d="M -522.84 222.855 L -521.84 224.855 L -522.84 222.855 Z" style="stroke-width: 1;"/><path fill="rgb(251,250,244)" stroke="rgb(251,250,244)" stroke-width="1" opacity="1" d="M -328.84 223.855 L -329.84 225.855 L -328.84 223.855 Z" style="stroke-width: 1;"/><path fill="rgb(251,250,244)" stroke="rgb(251,250,244)" stroke-width="1" opacity="1" d="M -250.84 223.855 L -249.84 225.855 L -250.84 223.855 Z" style="stroke-width: 1;"/><path fill="rgb(251,250,244)" stroke="rgb(251,250,244)" stroke-width="1" opacity="1" d="M -699.84 224.855 L -698.84 226.855 L -699.84 224.855 Z" style="stroke-width: 1;"/><path fill="rgb(251,250,244)" stroke="rgb(251,250,244)" stroke-width="1" opacity="1" d="M -556.84 224.855 L -557.84 226.855 L -556.84 224.855 Z" style="stroke-width: 1;"/><path fill="rgb(251,250,244)" stroke="rgb(251,250,244)" stroke-width="1" opacity="1" d="M -331.84 225.855 L -332.84 227.855 L -331.84 225.855 Z" style="stroke-width: 1;"/><path fill="rgb(251,250,244)" stroke="rgb(251,250,244)" stroke-width="1" opacity="1" d="M -247.84 225.855 L -246.84 227.855 L -247.84 225.855 Z" style="stroke-width: 1;"/><path fill="rgb(251,250,244)" stroke="rgb(251,250,244)" stroke-width="1" opacity="1" d="M -42.841 225.855 L -38.841 230.855 L -42.841 225.855 Z" style="stroke-width: 1;"/><path fill="rgb(251,250,244)" stroke="rgb(251,250,244)" stroke-width="1" opacity="1" d="M 47.159 225.855 L 46.159 227.855 L 47.159 225.855 Z" style="stroke-width: 1;"/><path fill="rgb(251,250,244)" stroke="rgb(251,250,244)" stroke-width="1" opacity="1" d="M 63.159 225.855 L 114.159 277.855 L 63.159 225.855 Z" style="stroke-width: 1;"/><path fill="rgb(251,250,244)" stroke="rgb(251,250,244)" stroke-width="1" opacity="1" d="M -783.84 226.855 L -784.84 228.855 L -783.84 226.855 Z" style="stroke-width: 1;"/><path fill="rgb(251,250,244)" stroke="rgb(251,250,244)" stroke-width="1" opacity="1" d="M -695.84 227.855 L -694.84 229.855 L -695.84 227.855 Z" style="stroke-width: 1;"/><path fill="rgb(251,250,244)" stroke="rgb(251,250,244)" stroke-width="1" opacity="1" d="M -558.84 227.855 L -559.84 229.855 L -558.84 227.855 Z" style="stroke-width: 1;"/><path fill="rgb(251,250,244)" stroke="rgb(251,250,244)" stroke-width="1" opacity="1" d="M -786.84 228.855 L -787.84 230.855 L -786.84 228.855 Z" style="stroke-width: 1;"/><path fill="rgb(251,250,244)" stroke="rgb(251,250,244)" stroke-width="1" opacity="1" d="M -243.84 228.855 L -242.84 230.855 L -243.84 228.855 Z" style="stroke-width: 1;"/><path fill="rgb(251,250,244)" stroke="rgb(251,250,244)" stroke-width="1" opacity="1" d="M -692.84 229.855 L -691.84 231.855 L -692.84 229.855 Z" style="stroke-width: 1;"/><path fill="rgb(251,250,244)" stroke="rgb(251,250,244)" stroke-width="1" opacity="1" d="M -146.84 229.855 L -147.84 231.855 L -146.84 229.855 Z" style="stroke-width: 1;"/><path fill="rgb(251,250,244)" stroke="rgb(251,250,244)" stroke-width="1" opacity="1" d="M -240.84 230.855 L -239.84 232.855 L -240.84 230.855 Z" style="stroke-width: 1;"/><path fill="rgb(251,250,244)" stroke="rgb(251,250,244)" stroke-width="1" opacity="1" d="M -790.84 231.855 L -791.84 233.855 L -790.84 231.855 Z" style="stroke-width: 1;"/><path fill="rgb(251,250,244)" stroke="rgb(251,250,244)" stroke-width="1" opacity="1" d="M -561.84 231.855 L -562.84 233.855 L -561.84 231.855 Z" style="stroke-width: 1;"/><path fill="rgb(251,250,244)" stroke="rgb(251,250,244)" stroke-width="1" opacity="1" d="M -688.84 232.855 L -687.84 234.855 L -688.84 232.855 Z" style="stroke-width: 1;"/><path fill="rgb(251,250,244)" stroke="rgb(251,250,244)" stroke-width="1" opacity="1" d="M -237.84 232.855 L -235.84 235.855 L -237.84 232.855 Z" style="stroke-width: 1;"/><path fill="rgb(251,250,244)" stroke="rgb(251,250,244)" stroke-width="1" opacity="1" d="M -794.84 234.855 L -795.84 236.855 L -794.84 234.855 Z" style="stroke-width: 1;"/><path fill="rgb(251,250,244)" stroke="rgb(251,250,244)" stroke-width="1" opacity="1" d="M -685.84 234.855 L -684.84 236.855 L -685.84 234.855 Z" style="stroke-width: 1;"/><path fill="rgb(251,250,244)" stroke="rgb(251,250,244)" stroke-width="1" opacity="1" d="M -563.84 234.855 L -564.84 236.855 L -563.84 234.855 Z" style="stroke-width: 1;"/><path fill="rgb(251,250,244)" stroke="rgb(251,250,244)" stroke-width="1" opacity="1" d="M -344.84 234.855 L -345.84 236.855 L -344.84 234.855 Z" style="stroke-width: 1;"/><path fill="rgb(251,250,244)" stroke="rgb(251,250,244)" stroke-width="1" opacity="1" d="M -155.84 234.855 L -156.84 236.855 L -155.84 234.855 Z" style="stroke-width: 1;"/><path fill="rgb(251,250,244)" stroke="rgb(251,250,244)" stroke-width="1" opacity="1" d="M -232.84 236.855 L -231.84 238.855 L -232.84 236.855 Z" style="stroke-width: 1;"/><path fill="rgb(251,250,244)" stroke="rgb(251,250,244)" stroke-width="1" opacity="1" d="M -798.84 237.855 L -799.84 239.855 L -798.84 237.855 Z" style="stroke-width: 1;"/><path fill="rgb(251,250,244)" stroke="rgb(251,250,244)" stroke-width="1" opacity="1" d="M -681.84 237.855 L -680.84 239.855 L -681.84 237.855 Z" style="stroke-width: 1;"/><path fill="rgb(251,250,244)" stroke="rgb(251,250,244)" stroke-width="1" opacity="1" d="M -348.84 237.855 L -349.84 239.855 L -348.84 237.855 Z" style="stroke-width: 1;"/><path fill="rgb(251,250,244)" stroke="rgb(251,250,244)" stroke-width="1" opacity="1" d="M -566.84 238.855 L -567.84 240.855 L -566.84 238.855 Z" style="stroke-width: 1;"/><path fill="rgb(251,250,244)" stroke="rgb(251,250,244)" stroke-width="1" opacity="1" d="M -29.841 238.855 L -23.841 245.855 L -29.841 238.855 Z" style="stroke-width: 1;"/><path fill="rgb(251,250,244)" stroke="rgb(251,250,244)" stroke-width="1" opacity="1" d="M -228.84 239.855 L -226.84 242.855 L -228.84 239.855 Z" style="stroke-width: 1;"/><path fill="rgb(251,250,244)" stroke="rgb(251,250,244)" stroke-width="1" opacity="1" d="M -802.84 240.855 L -804.84 243.855 L -802.84 240.855 Z" style="stroke-width: 1;"/><path fill="rgb(251,250,244)" stroke="rgb(251,250,244)" stroke-width="1" opacity="1" d="M -677.84 240.855 L -676.84 242.855 L -677.84 240.855 Z" style="stroke-width: 1;"/><path fill="rgb(251,250,244)" stroke="rgb(251,250,244)" stroke-width="1" opacity="1" d="M -352.84 240.855 L -353.84 242.855 L -352.84 240.855 Z" style="stroke-width: 1;"/><path fill="rgb(251,250,244)" stroke="rgb(251,250,244)" stroke-width="1" opacity="1" d="M -568.84 241.855 L -569.84 243.855 L -568.84 241.855 Z" style="stroke-width: 1;"/><path fill="rgb(251,250,244)" stroke="rgb(251,250,244)" stroke-width="1" opacity="1" d="M -674.84 242.855 L -673.84 244.855 L -674.84 242.855 Z" style="stroke-width: 1;"/><path fill="rgb(251,250,244)" stroke="rgb(251,250,244)" stroke-width="1" opacity="1" d="M -356.84 243.855 L -358.84 246.855 L -356.84 243.855 Z" style="stroke-width: 1;"/><path fill="rgb(251,250,244)" stroke="rgb(251,250,244)" stroke-width="1" opacity="1" d="M -223.84 243.855 L -219.84 248.855 L -223.84 243.855 Z" style="stroke-width: 1;"/><path fill="rgb(251,250,244)" stroke="rgb(251,250,244)" stroke-width="1" opacity="1" d="M -808.84 245.855 L -812.84 250.855 L -808.84 245.855 Z" style="stroke-width: 1;"/><path fill="rgb(251,250,244)" stroke="rgb(251,250,244)" stroke-width="1" opacity="1" d="M -670.84 245.855 L -669.84 247.855 L -670.84 245.855 Z" style="stroke-width: 1;"/><path fill="rgb(251,250,244)" stroke="rgb(251,250,244)" stroke-width="1" opacity="1" d="M -667.84 247.855 L -666.84 249.855 L -667.84 247.855 Z" style="stroke-width: 1;"/><path fill="rgb(251,250,244)" stroke="rgb(251,250,244)" stroke-width="1" opacity="1" d="M -361.84 247.855 L -364.84 251.855 L -361.84 247.855 Z" style="stroke-width: 1;"/><path fill="rgb(251,250,244)" stroke="rgb(251,250,244)" stroke-width="1" opacity="1" d="M -573.84 248.855 L -574.84 250.855 L -573.84 248.855 Z" style="stroke-width: 1;"/><path fill="rgb(251,250,244)" stroke="rgb(251,250,244)" stroke-width="1" opacity="1" d="M -216.84 249.855 L -211.84 255.855 L -216.84 249.855 Z" style="stroke-width: 1;"/><path fill="rgb(251,250,244)" stroke="rgb(251,250,244)" stroke-width="1" opacity="1" d="M -663.84 250.855 L -662.84 252.855 L -663.84 250.855 Z" style="stroke-width: 1;"/><path fill="rgb(251,250,244)" stroke="rgb(251,250,244)" stroke-width="1" opacity="1" d="M -575.84 251.855 L -576.84 253.855 L -575.84 251.855 Z" style="stroke-width: 1;"/><path fill="rgb(251,250,244)" stroke="rgb(251,250,244)" stroke-width="1" opacity="1" d="M 32.159 251.855 L 31.159 253.855 L 32.159 251.855 Z" style="stroke-width: 1;"/><path fill="rgb(251,250,244)" stroke="rgb(251,250,244)" stroke-width="1" opacity="1" d="M -816.84 252.855 L -838.84 275.855 L -816.84 252.855 Z" style="stroke-width: 1;"/><path fill="rgb(251,250,244)" stroke="rgb(251,250,244)" stroke-width="1" opacity="1" d="M -660.84 252.855 L -659.84 254.855 L -660.84 252.855 Z" style="stroke-width: 1;"/><path fill="rgb(251,250,244)" stroke="rgb(251,250,244)" stroke-width="1" opacity="1" d="M -368.84 253.855 L -374.84 260.855 L -368.84 253.855 Z" style="stroke-width: 1;"/><path fill="rgb(251,250,244)" stroke="rgb(251,250,244)" stroke-width="1" opacity="1" d="M -577.84 254.855 L -578.84 256.855 L -577.84 254.855 Z" style="stroke-width: 1;"/><path fill="rgb(251,250,244)" stroke="rgb(251,250,244)" stroke-width="1" opacity="1" d="M -13.841 255.855 L -7.841 262.855 L -13.841 255.855 Z" style="stroke-width: 1;"/><path fill="rgb(251,250,244)" stroke="rgb(251,250,244)" stroke-width="1" opacity="1" d="M 29.159 256.855 L 28.159 258.855 L 29.159 256.855 Z" style="stroke-width: 1;"/><path fill="rgb(251,250,244)" stroke="rgb(251,250,244)" stroke-width="1" opacity="1" d="M -580.84 258.855 L -581.84 260.855 L -580.84 258.855 Z" style="stroke-width: 1;"/><path fill="rgb(251,250,244)" stroke="rgb(251,250,244)" stroke-width="1" opacity="1" d="M -205.84 259.855 L -193.84 272.855 L -205.84 259.855 Z" style="stroke-width: 1;"/><path fill="rgb(251,250,244)" stroke="rgb(251,250,244)" stroke-width="1" opacity="1" d="M -582.84 261.855 L -583.84 263.855 L -582.84 261.855 Z" style="stroke-width: 1;"/><path fill="rgb(251,250,244)" stroke="rgb(251,250,244)" stroke-width="1" opacity="1" d="M -584.84 264.855 L -585.84 266.855 L -584.84 264.855 Z" style="stroke-width: 1;"/><path fill="rgb(251,250,244)" stroke="rgb(251,250,244)" stroke-width="1" opacity="1" d="M 24.159 264.855 L 23.159 266.855 L 24.159 264.855 Z" style="stroke-width: 1;"/><path fill="rgb(251,250,244)" stroke="rgb(251,250,244)" stroke-width="1" opacity="1" d="M -478.84 267.855 L -465.84 281.855 L -478.84 267.855 Z" style="stroke-width: 1;"/><path fill="rgb(251,250,244)" stroke="rgb(251,250,244)" stroke-width="1" opacity="1" d="M 21.159 269.855 L 20.159 271.855 L 21.159 269.855 Z" style="stroke-width: 1;"/><path fill="rgb(251,250,244)" stroke="rgb(251,250,244)" stroke-width="1" opacity="1" d="M -386.84 271.855 L -393.84 279.855 L -386.84 271.855 Z" style="stroke-width: 1;"/><path fill="rgb(251,250,244)" stroke="rgb(251,250,244)" stroke-width="1" opacity="1" d="M 2.159 272.855 L 7.159 278.855 L 2.159 272.855 Z" style="stroke-width: 1;"/><path fill="rgb(251,250,244)" stroke="rgb(251,250,244)" stroke-width="1" opacity="1" d="M 16.159 277.855 L 15.159 279.855 L 16.159 277.855 Z" style="stroke-width: 1;"/><path fill="rgb(251,250,244)" stroke="rgb(251,250,244)" stroke-width="1" opacity="1" d="M -841.84 278.855 L -845.84 283.855 L -841.84 278.855 Z" style="stroke-width: 1;"/><path fill="rgb(251,250,244)" stroke="rgb(251,250,244)" stroke-width="1" opacity="1" d="M -637.84 279.855 L -636.84 281.855 L -637.84 279.855 Z" style="stroke-width: 1;"/><path fill="rgb(251,250,244)" stroke="rgb(251,250,244)" stroke-width="1" opacity="1" d="M -185.84 279.855 L -176.84 289.855 L -185.84 279.855 Z" style="stroke-width: 1;"/><path fill="rgb(251,250,244)" stroke="rgb(251,250,244)" stroke-width="1" opacity="1" d="M 14.159 280.855 L 13.159 282.855 L 14.159 280.855 Z" style="stroke-width: 1;"/><path fill="rgb(251,250,244)" stroke="rgb(251,250,244)" stroke-width="1" opacity="1" d="M -396.84 282.855 L -399.84 286.855 L -396.84 282.855 Z" style="stroke-width: 1;"/><path fill="rgb(251,250,244)" stroke="rgb(251,250,244)" stroke-width="1" opacity="1" d="M 12.159 283.855 L 11.159 285.855 L 12.159 283.855 Z" style="stroke-width: 1;"/><path fill="rgb(251,250,244)" stroke="rgb(251,250,244)" stroke-width="1" opacity="1" d="M -630.84 284.855 L -629.84 286.855 L -630.84 284.855 Z" style="stroke-width: 1;"/><path fill="rgb(251,250,244)" stroke="rgb(251,250,244)" stroke-width="1" opacity="1" d="M -141.84 284.855 L -142.84 286.855 L -141.84 284.855 Z" style="stroke-width: 1;"/><path fill="rgb(251,250,244)" stroke="rgb(251,250,244)" stroke-width="1" opacity="1" d="M -848.84 286.855 L -850.84 289.855 L -848.84 286.855 Z" style="stroke-width: 1;"/><path fill="rgb(251,250,244)" stroke="rgb(251,250,244)" stroke-width="1" opacity="1" d="M 10.159 286.855 L 9.159 288.855 L 10.159 286.855 Z" style="stroke-width: 1;"/><path fill="rgb(251,250,244)" stroke="rgb(251,250,244)" stroke-width="1" opacity="1" d="M -401.84 288.855 L -403.84 291.855 L -401.84 288.855 Z" style="stroke-width: 1;"/><path fill="rgb(251,250,244)" stroke="rgb(251,250,244)" stroke-width="1" opacity="1" d="M 8.159 289.855 L 7.159 291.855 L 8.159 289.855 Z" style="stroke-width: 1;"/><path fill="rgb(251,250,244)" stroke="rgb(251,250,244)" stroke-width="1" opacity="1" d="M -852.84 291.855 L -853.84 293.855 L -852.84 291.855 Z" style="stroke-width: 1;"/><path fill="rgb(251,250,244)" stroke="rgb(251,250,244)" stroke-width="1" opacity="1" d="M 6.159 292.855 L 5.159 294.855 L 6.159 292.855 Z" style="stroke-width: 1;"/><path fill="rgb(251,250,244)" stroke="rgb(251,250,244)" stroke-width="1" opacity="1" d="M -405.84 293.855 L -406.84 295.855 L -405.84 293.855 Z" style="stroke-width: 1;"/><path fill="rgb(251,250,244)" stroke="rgb(251,250,244)" stroke-width="1" opacity="1" d="M -855.84 295.855 L -857.84 298.855 L -855.84 295.855 Z" style="stroke-width: 1;"/><path fill="rgb(251,250,244)" stroke="rgb(251,250,244)" stroke-width="1" opacity="1" d="M 4.159 295.855 L 3.159 297.855 L 4.159 295.855 Z" style="stroke-width: 1;"/><path fill="rgb(251,250,244)" stroke="rgb(251,250,244)" stroke-width="1" opacity="1" d="M -408.84 297.855 L -409.84 299.855 L -408.84 297.855 Z" style="stroke-width: 1;"/><path fill="rgb(251,250,244)" stroke="rgb(251,250,244)" stroke-width="1" opacity="1" d="M -476.84 298.855 L -477.84 300.855 L -476.84 298.855 Z" style="stroke-width: 1;"/><path fill="rgb(251,250,244)" stroke="rgb(251,250,244)" stroke-width="1" opacity="1" d="M 2.159 298.855 L 1.159 300.855 L 2.159 298.855 Z" style="stroke-width: 1;"/><path fill="rgb(251,250,244)" stroke="rgb(251,250,244)" stroke-width="1" opacity="1" d="M -859.84 300.855 L -860.84 302.855 L -859.84 300.855 Z" style="stroke-width: 1;"/><path fill="rgb(251,250,244)" stroke="rgb(251,250,244)" stroke-width="1" opacity="1" d="M -608.84 300.855 L -609.84 302.855 L -608.84 300.855 Z" style="stroke-width: 1;"/><path fill="rgb(251,250,244)" stroke="rgb(251,250,244)" stroke-width="1" opacity="1" d="M 0.159 301.855 L -0.841 303.855 L 0.159 301.855 Z" style="stroke-width: 1;"/><path fill="rgb(251,250,244)" stroke="rgb(251,250,244)" stroke-width="1" opacity="1" d="M -610.84 303.855 L -611.84 305.855 L -610.84 303.855 Z" style="stroke-width: 1;"/><path fill="rgb(251,250,244)" stroke="rgb(251,250,244)" stroke-width="1" opacity="1" d="M -862.84 304.855 L -863.84 306.855 L -862.84 304.855 Z" style="stroke-width: 1;"/><path fill="rgb(251,250,244)" stroke="rgb(251,250,244)" stroke-width="1" opacity="1" d="M -413.84 304.855 L -414.84 306.855 L -413.84 304.855 Z" style="stroke-width: 1;"/><path fill="rgb(251,250,244)" stroke="rgb(251,250,244)" stroke-width="1" opacity="1" d="M -612.84 306.855 L -613.84 308.855 L -612.84 306.855 Z" style="stroke-width: 1;"/><path fill="rgb(251,250,244)" stroke="rgb(251,250,244)" stroke-width="1" opacity="1" d="M -864.84 307.855 L -865.84 309.855 L -864.84 307.855 Z" style="stroke-width: 1;"/><path fill="rgb(251,250,244)" stroke="rgb(251,250,244)" stroke-width="1" opacity="1" d="M -415.84 307.855 L -416.84 309.855 L -415.84 307.855 Z" style="stroke-width: 1;"/><path fill="rgb(251,250,244)" stroke="rgb(251,250,244)" stroke-width="1" opacity="1" d="M -4.841 308.855 L -5.841 310.855 L -4.841 308.855 Z" style="stroke-width: 1;"/><path fill="rgb(251,250,244)" stroke="rgb(251,250,244)" stroke-width="1" opacity="1" d="M -270.84 309.855 L -269.84 311.855 L -270.84 309.855 Z" style="stroke-width: 1;"/><path fill="rgb(251,250,244)" stroke="rgb(251,250,244)" stroke-width="1" opacity="1" d="M -417.84 310.855 L -418.84 312.855 L -417.84 310.855 Z" style="stroke-width: 1;"/><path fill="rgb(251,250,244)" stroke="rgb(251,250,244)" stroke-width="1" opacity="1" d="M -6.841 311.855 L -7.841 313.855 L -6.841 311.855 Z" style="stroke-width: 1;"/><path fill="rgb(251,250,244)" stroke="rgb(251,250,244)" stroke-width="1" opacity="1" d="M -869.84 314.855 L -870.84 316.855 L -869.84 314.855 Z" style="stroke-width: 1;"/><path fill="rgb(251,250,244)" stroke="rgb(251,250,244)" stroke-width="1" opacity="1" d="M -617.84 314.855 L -618.84 316.855 L -617.84 314.855 Z" style="stroke-width: 1;"/><path fill="rgb(251,250,244)" stroke="rgb(251,250,244)" stroke-width="1" opacity="1" d="M -420.84 315.855 L -421.84 317.855 L -420.84 315.855 Z" style="stroke-width: 1;"/><path fill="rgb(251,250,244)" stroke="rgb(251,250,244)" stroke-width="1" opacity="1" d="M -233.84 315.855 L -232.84 317.855 L -233.84 315.855 Z" style="stroke-width: 1;"/><path fill="rgb(251,250,244)" stroke="rgb(251,250,244)" stroke-width="1" opacity="1" d="M -9.841 315.855 L -10.841 317.855 L -9.841 315.855 Z" style="stroke-width: 1;"/><path fill="rgb(251,250,244)" stroke="rgb(251,250,244)" stroke-width="1" opacity="1" d="M -871.84 317.855 L -872.84 319.855 L -871.84 317.855 Z" style="stroke-width: 1;"/><path fill="rgb(251,250,244)" stroke="rgb(251,250,244)" stroke-width="1" opacity="1" d="M -619.84 317.855 L -620.84 319.855 L -619.84 317.855 Z" style="stroke-width: 1;"/><path fill="rgb(251,250,244)" stroke="rgb(251,250,244)" stroke-width="1" opacity="1" d="M -489.84 317.855 L -490.84 319.855 L -489.84 317.855 Z" style="stroke-width: 1;"/><path fill="rgb(251,250,244)" stroke="rgb(251,250,244)" stroke-width="1" opacity="1" d="M -229.84 318.855 L -228.84 320.855 C -230.7 321.322 -231.04 320.655 -229.84 318.855 Z" style="stroke-width: 1;"/><path fill="rgb(251,250,244)" stroke="rgb(251,250,244)" stroke-width="1" opacity="1" d="M -14.841 319.855 L -12.341 320.355 C -13.741 322.555 -14.571 322.389 -14.841 319.855 Z" style="stroke-width: 1;"/><path fill="rgb(251,250,244)" stroke="rgb(251,250,244)" stroke-width="1" opacity="1" d="M -873.84 320.855 L -874.84 322.855 L -873.84 320.855 Z" style="stroke-width: 1;"/><path fill="rgb(251,250,244)" stroke="rgb(251,250,244)" stroke-width="1" opacity="1" d="M -491.84 320.855 L -492.84 322.855 L -491.84 320.855 Z" style="stroke-width: 1;"/><path fill="rgb(251,250,244)" stroke="rgb(251,250,244)" stroke-width="1" opacity="1" d="M -15.841 323.855 L -16.841 325.855 L -18.341 325.355 L -15.841 323.855 Z" style="stroke-width: 1;"/><path fill="rgb(251,250,244)" stroke="rgb(251,250,244)" stroke-width="1" opacity="1" d="M -876.84 325.855 L -877.84 327.855 L -876.84 325.855 Z" style="stroke-width: 1;"/><path fill="rgb(251,250,244)" stroke="rgb(251,250,244)" stroke-width="1" opacity="1" d="M -624.84 325.855 L -625.84 327.855 L -624.84 325.855 Z" style="stroke-width: 1;"/><path fill="rgb(251,250,244)" stroke="rgb(251,250,244)" stroke-width="1" opacity="1" d="M -426.84 325.855 L -427.84 327.855 L -426.84 325.855 Z" style="stroke-width: 1;"/><path fill="rgb(251,250,244)" stroke="rgb(251,250,244)" stroke-width="1" opacity="1" d="M -19.341 326.855 L -17.341 327.355 L -20.341 329.355 L -19.341 326.855 Z" style="stroke-width: 1;"/><path fill="rgb(251,250,244)" stroke="rgb(251,250,244)" stroke-width="1" opacity="1" d="M -292.84 327.855 L -298.84 334.855 L -292.84 327.855 Z" style="stroke-width: 1;"/><path fill="rgb(251,250,244)" stroke="rgb(251,250,244)" stroke-width="1" opacity="1" d="M -879.84 330.855 L -880.84 332.855 L -879.84 330.855 Z" style="stroke-width: 1;"/><path fill="rgb(251,250,244)" stroke="rgb(251,250,244)" stroke-width="1" opacity="1" d="M -881.84 333.855 L -882.84 335.855 L -881.84 333.855 Z" style="stroke-width: 1;"/><path fill="rgb(251,250,244)" stroke="rgb(251,250,244)" stroke-width="1" opacity="1" d="M -629.84 333.855 L -630.84 335.855 L -629.84 333.855 Z" style="stroke-width: 1;"/><path fill="rgb(251,250,244)" stroke="rgb(251,250,244)" stroke-width="1" opacity="1" d="M -209.84 333.855 L -208.84 335.855 L -209.84 333.855 Z" style="stroke-width: 1;"/><path fill="rgb(251,250,244)" stroke="rgb(251,250,244)" stroke-width="1" opacity="1" d="M -749.84 335.855 L -748.34 336.355 L -753.84 340.855 L -749.84 335.855 Z" style="stroke-width: 1;"/><path fill="rgb(251,250,244)" stroke="rgb(251,250,244)" stroke-width="1" opacity="1" d="M -204.84 337.855 L -203.84 339.855 L -204.84 337.855 Z" style="stroke-width: 1;"/><path fill="rgb(251,250,244)" stroke="rgb(251,250,244)" stroke-width="1" opacity="1" d="M -742.84 338.855 L -741.84 340.855 L -742.84 338.855 Z" style="stroke-width: 1;"/><path fill="rgb(251,250,244)" stroke="rgb(251,250,244)" stroke-width="1" opacity="1" d="M -632.84 338.855 L -633.84 340.855 L -632.84 338.855 Z" style="stroke-width: 1;"/><path fill="rgb(251,250,244)" stroke="rgb(251,250,244)" stroke-width="1" opacity="1" d="M -305.84 341.855 L -306.84 343.855 L -305.84 341.855 Z" style="stroke-width: 1;"/><path fill="rgb(251,250,244)" stroke="rgb(251,250,244)" stroke-width="1" opacity="1" d="M -886.84 342.855 L -887.84 344.855 L -886.84 342.855 Z" style="stroke-width: 1;"/><path fill="rgb(251,250,244)" stroke="rgb(251,250,244)" stroke-width="1" opacity="1" d="M -635.84 343.855 L -636.84 345.855 L -635.84 343.855 Z" style="stroke-width: 1;"/><path fill="rgb(251,250,244)" stroke="rgb(251,250,244)" stroke-width="1" opacity="1" d="M -758.84 345.855 L -760.84 348.855 L -758.84 345.855 Z" style="stroke-width: 1;"/><path fill="rgb(251,250,244)" stroke="rgb(251,250,244)" stroke-width="1" opacity="1" d="M -310.84 347.855 L -311.84 349.855 L -310.84 347.855 Z" style="stroke-width: 1;"/><path fill="rgb(251,250,244)" stroke="rgb(251,250,244)" stroke-width="1" opacity="1" d="M -192.84 347.855 L -191.84 349.855 L -192.84 347.855 Z" style="stroke-width: 1;"/><path fill="rgb(251,250,244)" stroke="rgb(251,250,244)" stroke-width="1" opacity="1" d="M -638.84 348.855 L -639.84 350.855 L -638.84 348.855 Z" style="stroke-width: 1;"/><path fill="rgb(251,250,244)" stroke="rgb(251,250,244)" stroke-width="1" opacity="1" d="M -288.84 350.855 L -289.84 352.855 L -288.84 350.855 Z" style="stroke-width: 1;"/><path fill="rgb(251,250,244)" stroke="rgb(251,250,244)" stroke-width="1" opacity="1" d="M -186.84 352.855 L -183.84 356.855 L -186.84 352.855 Z" style="stroke-width: 1;"/><path fill="rgb(251,250,244)" stroke="rgb(251,250,244)" stroke-width="1" opacity="1" d="M -316.84 355.855 L -317.84 357.855 L -316.84 355.855 Z" style="stroke-width: 1;"/><path fill="rgb(251,250,244)" stroke="rgb(251,250,244)" stroke-width="1" opacity="1" d="M -291.84 355.855 L -292.84 357.855 L -291.84 355.855 Z" style="stroke-width: 1;"/><path fill="rgb(251,250,244)" stroke="rgb(251,250,244)" stroke-width="1" opacity="1" d="M -644.84 358.855 L -645.84 360.855 L -644.84 358.855 Z" style="stroke-width: 1;"/><path fill="rgb(251,250,244)" stroke="rgb(251,250,244)" stroke-width="1" opacity="1" d="M -293.84 358.855 L -294.84 360.855 L -293.84 358.855 Z" style="stroke-width: 1;"/><path fill="rgb(251,250,244)" stroke="rgb(251,250,244)" stroke-width="1" opacity="1" d="M -178.84 360.855 L -176.34 362.355 L -177.84 361.855 L -178.84 360.855 Z" style="stroke-width: 1;"/><path fill="rgb(251,250,244)" stroke="rgb(251,250,244)" stroke-width="1" opacity="1" d="M -295.84 361.855 L -296.84 363.855 L -295.84 361.855 Z" style="stroke-width: 1;"/><path fill="rgb(251,250,244)" stroke="rgb(251,250,244)" stroke-width="1" opacity="1" d="M -772.84 362.855 L -773.84 364.855 L -772.84 362.855 Z" style="stroke-width: 1;"/><path fill="rgb(251,250,244)" stroke="rgb(251,250,244)" stroke-width="1" opacity="1" d="M -321.84 362.855 L -322.84 364.855 L -321.84 362.855 Z" style="stroke-width: 1;"/><path fill="rgb(251,250,244)" stroke="rgb(251,250,244)" stroke-width="1" opacity="1" d="M -297.84 364.855 L -298.84 366.855 L -297.84 364.855 Z" style="stroke-width: 1;"/><path fill="rgb(251,250,244)" stroke="rgb(251,250,244)" stroke-width="1" opacity="1" d="M -648.84 365.855 L -649.84 367.855 L -648.84 365.855 Z" style="stroke-width: 1;"/><path fill="rgb(251,250,244)" stroke="rgb(251,250,244)" stroke-width="1" opacity="1" d="M -323.84 365.855 L -324.84 367.855 L -323.84 365.855 Z" style="stroke-width: 1;"/><path fill="rgb(251,250,244)" stroke="rgb(251,250,244)" stroke-width="1" opacity="1" d="M -300.84 368.855 L -301.84 370.855 L -300.84 368.855 Z" style="stroke-width: 1;"/><path fill="rgb(251,250,244)" stroke="rgb(251,250,244)" stroke-width="1" opacity="1" d="M -777.84 369.855 L -778.84 371.855 L -777.84 369.855 Z" style="stroke-width: 1;"/><path fill="rgb(251,250,244)" stroke="rgb(251,250,244)" stroke-width="1" opacity="1" d="M -302.84 371.855 L -303.84 373.855 L -302.84 371.855 Z" style="stroke-width: 1;"/><path fill="rgb(251,250,244)" stroke="rgb(251,250,244)" stroke-width="1" opacity="1" d="M -652.84 372.855 L -653.84 374.855 L -652.84 372.855 Z" style="stroke-width: 1;"/><path fill="rgb(251,250,244)" stroke="rgb(251,250,244)" stroke-width="1" opacity="1" d="M -305.84 375.855 L -306.84 377.855 L -305.84 375.855 Z" style="stroke-width: 1;"/><path fill="rgb(251,250,244)" stroke="rgb(251,250,244)" stroke-width="1" opacity="1" d="M -656.84 379.855 L -657.84 381.855 L -656.84 379.855 Z" style="stroke-width: 1;"/><path fill="rgb(251,250,244)" stroke="rgb(251,250,244)" stroke-width="1" opacity="1" d="M -309.84 380.855 L -311.84 383.855 L -309.84 380.855 Z" style="stroke-width: 1;"/><path fill="rgb(251,250,244)" stroke="rgb(251,250,244)" stroke-width="1" opacity="1" d="M -668.84 383.855 L -669.84 385.855 L -668.84 383.855 Z" style="stroke-width: 1;"/><path fill="rgb(251,250,244)" stroke="rgb(251,250,244)" stroke-width="1" opacity="1" d="M 75.159 384.855 L 74.159 386.855 L 75.159 384.855 Z" style="stroke-width: 1;"/><path fill="rgb(251,250,244)" stroke="rgb(251,250,244)" stroke-width="1" opacity="1" d="M -313.84 385.855 L -316.84 389.855 L -313.84 385.855 Z" style="stroke-width: 1;"/><path fill="rgb(251,250,244)" stroke="rgb(251,250,244)" stroke-width="1" opacity="1" d="M -670.84 386.855 L -671.84 388.855 L -670.84 386.855 Z" style="stroke-width: 1;"/><path fill="rgb(251,250,244)" stroke="rgb(251,250,244)" stroke-width="1" opacity="1" d="M -661.84 388.855 L -662.84 390.855 L -661.84 388.855 Z" style="stroke-width: 1;"/><path fill="rgb(251,250,244)" stroke="rgb(251,250,244)" stroke-width="1" opacity="1" d="M -672.84 389.855 L -673.84 391.855 L -672.84 389.855 Z" style="stroke-width: 1;"/><path fill="rgb(251,250,244)" stroke="rgb(251,250,244)" stroke-width="1" opacity="1" d="M -321.84 394.855 L -331.84 405.855 L -321.84 394.855 Z" style="stroke-width: 1;"/><path fill="rgb(251,250,244)" stroke="rgb(251,250,244)" stroke-width="1" opacity="1" d="M 67.159 395.855 L 66.159 397.855 L 67.159 395.855 Z" style="stroke-width: 1;"/><path fill="rgb(251,250,244)" stroke="rgb(251,250,244)" stroke-width="1" opacity="1" d="M 63.159 400.855 L 62.159 402.855 L 63.159 400.855 Z" style="stroke-width: 1;"/><path fill="rgb(251,250,244)" stroke="rgb(251,250,244)" stroke-width="1" opacity="1" d="M -668.84 401.855 L -669.84 403.855 L -668.84 401.855 Z" style="stroke-width: 1;"/><path fill="rgb(251,250,244)" stroke="rgb(251,250,244)" stroke-width="1" opacity="1" d="M -162.84 405.855 L -158.84 410.855 L -162.84 405.855 Z" style="stroke-width: 1;"/><path fill="rgb(251,250,244)" stroke="rgb(251,250,244)" stroke-width="1" opacity="1" d="M 59.159 405.855 L 58.159 407.855 L 59.159 405.855 Z" style="stroke-width: 1;"/><path fill="rgb(251,250,244)" stroke="rgb(251,250,244)" stroke-width="1" opacity="1" d="M -335.84 407.855 L -339.84 412.855 L -335.84 407.855 Z" style="stroke-width: 1;"/><path fill="rgb(251,250,244)" stroke="rgb(251,250,244)" stroke-width="1" opacity="1" d="M -458.84 412.855 L -458.34 415.355 L -459.34 415.355 L -458.84 412.855 Z" style="stroke-width: 1;"/><path fill="rgb(251,250,244)" stroke="rgb(251,250,244)" stroke-width="1" opacity="1" d="M -154.84 412.855 L -150.84 417.855 L -154.84 412.855 Z" style="stroke-width: 1;"/><path fill="rgb(251,250,244)" stroke="rgb(251,250,244)" stroke-width="1" opacity="1" d="M -343.84 414.855 L -344.84 416.855 L -343.84 414.855 Z" style="stroke-width: 1;"/><path fill="rgb(251,250,244)" stroke="rgb(251,250,244)" stroke-width="1" opacity="1" d="M -346.84 416.855 L -347.84 418.855 L -346.84 416.855 Z" style="stroke-width: 1;"/><path fill="rgb(251,250,244)" stroke="rgb(251,250,244)" stroke-width="1" opacity="1" d="M -459.84 417.855 L -459.34 420.355 L -460.34 420.355 L -459.84 417.855 Z" style="stroke-width: 1;"/><path fill="rgb(251,250,244)" stroke="rgb(251,250,244)" stroke-width="1" opacity="1" d="M -351.84 418.855 C -349.84 419.855 -349.84 420.855 -351.84 421.855 L -351.84 418.855 Z" style="stroke-width: 1;"/><path fill="rgb(251,250,244)" stroke="rgb(251,250,244)" stroke-width="1" opacity="1" d="M -460.84 424.855 L -460.34 427.355 L -461.34 427.355 L -460.84 424.855 Z" style="stroke-width: 1;"/><path fill="rgb(251,250,244)" stroke="rgb(251,250,244)" stroke-width="1" opacity="1" d="M -143.84 424.855 L -141.84 427.855 L -143.84 424.855 Z" style="stroke-width: 1;"/><path fill="rgb(251,250,244)" stroke="rgb(251,250,244)" stroke-width="1" opacity="1" d="M 42.159 426.855 L 40.159 429.855 L 42.159 426.855 Z" style="stroke-width: 1;"/><path fill="rgb(251,250,244)" stroke="rgb(251,250,244)" stroke-width="1" opacity="1" d="M -461.84 430.855 L -461.34 433.355 L -462.34 433.355 L -461.84 430.855 Z" style="stroke-width: 1;"/><path fill="rgb(251,250,244)" stroke="rgb(251,250,244)" stroke-width="1" opacity="1" d="M -135.84 431.855 L -134.84 433.855 L -135.84 431.855 Z" style="stroke-width: 1;"/><path fill="rgb(251,250,244)" stroke="rgb(251,250,244)" stroke-width="1" opacity="1" d="M -559.84 433.855 L -556.34 434.355 L -559.84 434.855 L -559.84 433.855 Z" style="stroke-width: 1;"/><path fill="rgb(251,250,244)" stroke="rgb(251,250,244)" stroke-width="1" opacity="1" d="M -551.84 434.855 L -548.34 435.355 L -551.84 435.855 L -551.84 434.855 Z" style="stroke-width: 1;"/><path fill="rgb(251,250,244)" stroke="rgb(251,250,244)" stroke-width="1" opacity="1" d="M 35.159 434.855 L 34.159 436.855 L 35.159 434.855 Z" style="stroke-width: 1;"/><path fill="rgb(251,250,244)" stroke="rgb(251,250,244)" stroke-width="1" opacity="1" d="M -543.84 435.855 L -540.34 436.355 L -543.84 436.855 L -543.84 435.855 Z" style="stroke-width: 1;"/><path fill="rgb(251,250,244)" stroke="rgb(251,250,244)" stroke-width="1" opacity="1" d="M -703.84 436.855 L -702.84 438.855 L -703.84 436.855 Z" style="stroke-width: 1;"/><path fill="rgb(251,250,244)" stroke="rgb(251,250,244)" stroke-width="1" opacity="1" d="M -534.84 436.855 L -531.34 437.355 L -534.84 437.855 L -534.84 436.855 Z" style="stroke-width: 1;"/><path fill="rgb(251,250,244)" stroke="rgb(251,250,244)" stroke-width="1" opacity="1" d="M -526.84 437.855 L -522.34 438.355 L -526.84 438.855 L -526.84 437.855 Z" style="stroke-width: 1;"/><path fill="rgb(251,250,244)" stroke="rgb(251,250,244)" stroke-width="1" opacity="1" d="M -682.84 438.855 L -675.84 446.855 L -682.84 438.855 Z" style="stroke-width: 1;"/><path fill="rgb(251,250,244)" stroke="rgb(251,250,244)" stroke-width="1" opacity="1" d="M -517.84 438.855 L -513.34 439.355 L -517.84 439.855 L -517.84 438.855 Z" style="stroke-width: 1;"/><path fill="rgb(251,250,244)" stroke="rgb(251,250,244)" stroke-width="1" opacity="1" d="M -462.84 438.855 L -462.34 442.355 L -463.34 442.355 L -462.84 438.855 Z" style="stroke-width: 1;"/><path fill="rgb(251,250,244)" stroke="rgb(251,250,244)" stroke-width="1" opacity="1" d="M -508.84 439.855 C -505.84 439.189 -504 439.689 -503.34 441.355 L -504.84 440.855 C -508.17 441.522 -509.5 441.189 -508.84 439.855 Z" style="stroke-width: 1;"/><path fill="rgb(251,250,244)" stroke="rgb(251,250,244)" stroke-width="1" opacity="1" d="M 29.159 441.855 L 27.159 444.855 L 29.159 441.855 Z" style="stroke-width: 1;"/><path fill="rgb(251,250,244)" stroke="rgb(251,250,244)" stroke-width="1" opacity="1" d="M -128.84 442.855 L -130.84 445.855 L -128.84 442.855 Z" style="stroke-width: 1;"/><path fill="rgb(251,250,244)" stroke="rgb(251,250,244)" stroke-width="1" opacity="1" d="M -926.84 446.855 L -922.84 451.855 L -926.84 446.855 Z" style="stroke-width: 1;"/><path fill="rgb(251,250,244)" stroke="rgb(251,250,244)" stroke-width="1" opacity="1" d="M -133.84 446.855 L -134.84 448.855 L -133.84 446.855 Z" style="stroke-width: 1;"/><path fill="rgb(251,250,244)" stroke="rgb(251,250,244)" stroke-width="1" opacity="1" d="M -670.84 449.855 L -668.84 452.855 L -670.84 449.855 Z" style="stroke-width: 1;"/><path fill="rgb(251,250,244)" stroke="rgb(251,250,244)" stroke-width="1" opacity="1" d="M -137.84 449.855 L -138.84 451.855 L -137.84 449.855 Z" style="stroke-width: 1;"/><path fill="rgb(251,250,244)" stroke="rgb(251,250,244)" stroke-width="1" opacity="1" d="M -458.84 451.855 L -451.84 459.855 L -458.84 451.855 Z" style="stroke-width: 1;"/><path fill="rgb(251,250,244)" stroke="rgb(251,250,244)" stroke-width="1" opacity="1" d="M -140.84 451.855 L -141.84 453.855 L -140.84 451.855 Z" style="stroke-width: 1;"/><path fill="rgb(251,250,244)" stroke="rgb(251,250,244)" stroke-width="1" opacity="1" d="M -223.84 452.855 L -224.84 454.855 L -223.84 452.855 Z" style="stroke-width: 1;"/><path fill="rgb(251,250,244)" stroke="rgb(251,250,244)" stroke-width="1" opacity="1" d="M -143.84 453.855 L -144.84 455.855 L -143.84 453.855 Z" style="stroke-width: 1;"/><path fill="rgb(251,250,244)" stroke="rgb(251,250,244)" stroke-width="1" opacity="1" d="M -915.84 456.855 L -907.34 466.355 L -909.34 465.355 L -915.84 456.855 Z" style="stroke-width: 1;"/><path fill="rgb(251,250,244)" stroke="rgb(251,250,244)" stroke-width="1" opacity="1" d="M -226.84 456.855 L -228.84 459.855 L -226.84 456.855 Z" style="stroke-width: 1;"/><path fill="rgb(251,250,244)" stroke="rgb(251,250,244)" stroke-width="1" opacity="1" d="M -147.84 456.855 L -146.84 460.855 C -149.84 459.522 -150.17 458.189 -147.84 456.855 Z" style="stroke-width: 1;"/><path fill="rgb(251,250,244)" stroke="rgb(251,250,244)" stroke-width="1" opacity="1" d="M 15.159 456.855 L 9.159 463.855 L 15.159 456.855 Z" style="stroke-width: 1;"/><path fill="rgb(251,250,244)" stroke="rgb(251,250,244)" stroke-width="1" opacity="1" d="M -662.84 458.855 L -660.84 461.855 L -662.84 458.855 Z" style="stroke-width: 1;"/><path fill="rgb(251,250,244)" stroke="rgb(251,250,244)" stroke-width="1" opacity="1" d="M -232.84 463.855 L -233.84 465.855 L -232.84 463.855 Z" style="stroke-width: 1;"/><path fill="rgb(251,250,244)" stroke="rgb(251,250,244)" stroke-width="1" opacity="1" d="M -140.84 464.855 L -133.84 472.855 L -140.84 464.855 Z" style="stroke-width: 1;"/><path fill="rgb(251,250,244)" stroke="rgb(251,250,244)" stroke-width="1" opacity="1" d="M -651.84 468.855 L -650.84 470.855 L -651.84 468.855 Z" style="stroke-width: 1;"/><path fill="rgb(251,250,244)" stroke="rgb(251,250,244)" stroke-width="1" opacity="1" d="M -438.84 471.855 L -435.84 475.855 L -438.84 471.855 Z" style="stroke-width: 1;"/><path fill="rgb(251,250,244)" stroke="rgb(251,250,244)" stroke-width="1" opacity="1" d="M 0.159 471.855 L -10.841 483.855 L 0.159 471.855 Z" style="stroke-width: 1;"/><path fill="rgb(251,250,244)" stroke="rgb(251,250,244)" stroke-width="1" opacity="1" d="M -486.84 473.855 L -484.34 474.355 L -486.84 474.855 L -486.84 473.855 Z" style="stroke-width: 1;"/><path fill="rgb(251,250,244)" stroke="rgb(251,250,244)" stroke-width="1" opacity="1" d="M -477.84 474.855 L -475.34 475.355 L -477.84 475.855 L -477.84 474.855 Z" style="stroke-width: 1;"/><path fill="rgb(251,250,244)" stroke="rgb(251,250,244)" stroke-width="1" opacity="1" d="M -896.84 475.855 L -892.84 480.855 L -896.84 475.855 Z" style="stroke-width: 1;"/><path fill="rgb(251,250,244)" stroke="rgb(251,250,244)" stroke-width="1" opacity="1" d="M -645.84 475.855 L -641.84 480.855 L -645.84 475.855 Z" style="stroke-width: 1;"/><path fill="rgb(251,250,244)" stroke="rgb(251,250,244)" stroke-width="1" opacity="1" d="M -245.84 477.855 L -246.84 479.855 L -245.84 477.855 Z" style="stroke-width: 1;"/><path fill="rgb(251,250,244)" stroke="rgb(251,250,244)" stroke-width="1" opacity="1" d="M -252.84 483.855 L -255.84 487.855 L -252.84 483.855 Z" style="stroke-width: 1;"/><path fill="rgb(251,250,244)" stroke="rgb(251,250,244)" stroke-width="1" opacity="1" d="M -121.84 483.855 L -118.84 487.855 L -121.84 483.855 Z" style="stroke-width: 1;"/><path fill="rgb(251,250,244)" stroke="rgb(251,250,244)" stroke-width="1" opacity="1" d="M -634.84 485.855 L -631.84 489.855 L -634.84 485.855 Z" style="stroke-width: 1;"/><path fill="rgb(251,250,244)" stroke="rgb(251,250,244)" stroke-width="1" opacity="1" d="M -423.84 486.855 L -419.84 491.855 L -423.84 486.855 Z" style="stroke-width: 1;"/><path fill="rgb(251,250,244)" stroke="rgb(251,250,244)" stroke-width="1" opacity="1" d="M -881.84 490.855 L -877.84 495.855 L -881.84 490.855 Z" style="stroke-width: 1;"/><path fill="rgb(251,250,244)" stroke="rgb(251,250,244)" stroke-width="1" opacity="1" d="M -21.841 492.855 L -24.841 496.855 L -21.841 492.855 Z" style="stroke-width: 1;"/><path fill="rgb(251,250,244)" stroke="rgb(251,250,244)" stroke-width="1" opacity="1" d="M -623.84 495.855 L -620.84 499.855 L -623.84 495.855 Z" style="stroke-width: 1;"/><path fill="rgb(251,250,244)" stroke="rgb(251,250,244)" stroke-width="1" opacity="1" d="M -411.84 497.855 L -407.84 502.855 L -411.84 497.855 Z" style="stroke-width: 1;"/><path fill="rgb(251,250,244)" stroke="rgb(251,250,244)" stroke-width="1" opacity="1" d="M -105.84 499.855 L -101.84 504.855 L -105.84 499.855 Z" style="stroke-width: 1;"/><path fill="rgb(251,250,244)" stroke="rgb(251,250,244)" stroke-width="1" opacity="1" d="M -30.841 500.855 L -32.841 503.855 L -30.841 500.855 Z" style="stroke-width: 1;"/><path fill="rgb(251,250,244)" stroke="rgb(251,250,244)" stroke-width="1" opacity="1" d="M -866.84 504.855 L -862.84 509.855 L -866.84 504.855 Z" style="stroke-width: 1;"/><path fill="rgb(251,250,244)" stroke="rgb(251,250,244)" stroke-width="1" opacity="1" d="M -612.84 505.855 L -609.84 509.855 L -612.84 505.855 Z" style="stroke-width: 1;"/><path fill="rgb(251,250,244)" stroke="rgb(251,250,244)" stroke-width="1" opacity="1" d="M -37.841 506.855 L -38.841 508.855 L -37.841 506.855 Z" style="stroke-width: 1;"/><path fill="rgb(251,250,244)" stroke="rgb(251,250,244)" stroke-width="1" opacity="1" d="M -398.84 509.855 L -394.84 514.855 L -398.84 509.855 Z" style="stroke-width: 1;"/><path fill="rgb(251,250,244)" stroke="rgb(251,250,244)" stroke-width="1" opacity="1" d="M -43.841 511.855 L -44.841 513.855 L -43.841 511.855 Z" style="stroke-width: 1;"/><path fill="rgb(251,250,244)" stroke="rgb(251,250,244)" stroke-width="1" opacity="1" d="M -91.841 512.855 L -87.841 517.855 L -91.841 512.855 Z" style="stroke-width: 1;"/><path fill="rgb(251,250,244)" stroke="rgb(251,250,244)" stroke-width="1" opacity="1" d="M -852.84 517.855 L -848.84 522.855 L -852.84 517.855 Z" style="stroke-width: 1;"/><path fill="rgb(251,250,244)" stroke="rgb(251,250,244)" stroke-width="1" opacity="1" d="M -52.841 518.855 L -53.841 520.855 L -52.841 518.855 Z" style="stroke-width: 1;"/><path fill="rgb(251,250,244)" stroke="rgb(251,250,244)" stroke-width="1" opacity="1" d="M -385.84 521.855 L -382.84 525.855 L -385.84 521.855 Z" style="stroke-width: 1;"/><path fill="rgb(251,250,244)" stroke="rgb(251,250,244)" stroke-width="1" opacity="1" d="M -564.84 522.855 L -562.34 523.355 L -564.84 523.855 L -564.84 522.855 Z" style="stroke-width: 1;"/><path fill="rgb(251,250,244)" stroke="rgb(251,250,244)" stroke-width="1" opacity="1" d="M -800.84 524.855 L -798.34 525.355 L -800.84 525.855 L -800.84 524.855 Z" style="stroke-width: 1;"/><path fill="rgb(251,250,244)" stroke="rgb(251,250,244)" stroke-width="1" opacity="1" d="M -545.84 525.855 L -543.34 526.355 L -545.84 526.855 L -545.84 525.855 Z" style="stroke-width: 1;"/><path fill="rgb(251,250,244)" stroke="rgb(251,250,244)" stroke-width="1" opacity="1" d="M -77.841 525.855 L -73.841 530.855 L -77.841 525.855 Z" style="stroke-width: 1;"/><path fill="rgb(251,250,244)" stroke="rgb(251,250,244)" stroke-width="1" opacity="1" d="M -813.84 526.855 L -811.34 527.355 L -813.84 527.855 L -813.84 526.855 Z" style="stroke-width: 1;"/><path fill="rgb(251,250,244)" stroke="rgb(251,250,244)" stroke-width="1" opacity="1" d="M -537.84 526.855 L -534.34 527.355 L -537.84 527.855 L -537.84 526.855 Z" style="stroke-width: 1;"/><path fill="rgb(251,250,244)" stroke="rgb(251,250,244)" stroke-width="1" opacity="1" d="M -821.84 527.855 L -818.34 528.355 L -821.84 528.855 L -821.84 527.855 Z" style="stroke-width: 1;"/><path fill="rgb(251,250,244)" stroke="rgb(251,250,244)" stroke-width="1" opacity="1" d="M -528.84 527.855 L -526.34 528.355 L -528.84 528.855 L -528.84 527.855 Z" style="stroke-width: 1;"/><path fill="rgb(251,250,244)" stroke="rgb(251,250,244)" stroke-width="1" opacity="1" d="M -64.841 527.855 L -65.841 529.855 L -64.841 527.855 Z" style="stroke-width: 1;"/><path fill="rgb(251,250,244)" stroke="rgb(251,250,244)" stroke-width="1" opacity="1" d="M -830.84 528.855 L -828.34 529.355 L -830.84 529.855 L -830.84 528.855 Z" style="stroke-width: 1;"/><path fill="rgb(251,250,244)" stroke="rgb(251,250,244)" stroke-width="1" opacity="1" d="M -519.84 528.855 L -517.34 529.355 L -519.84 529.855 L -519.84 528.855 Z" style="stroke-width: 1;"/><path fill="rgb(251,250,244)" stroke="rgb(251,250,244)" stroke-width="1" opacity="1" d="M -839.84 529.855 L -837.34 530.355 L -839.84 530.855 L -839.84 529.855 Z" style="stroke-width: 1;"/><path fill="rgb(251,250,244)" stroke="rgb(251,250,244)" stroke-width="1" opacity="1" d="M -510.84 529.855 L -507.34 530.355 L -510.84 530.855 L -510.84 529.855 Z" style="stroke-width: 1;"/><path fill="rgb(251,250,244)" stroke="rgb(251,250,244)" stroke-width="1" opacity="1" d="M -498.84 530.855 L -495.34 531.355 L -498.84 531.855 L -498.84 530.855 Z" style="stroke-width: 1;"/><path fill="rgb(251,250,244)" stroke="rgb(251,250,244)" stroke-width="1" opacity="1" d="M -487.84 531.855 L -485.34 532.355 L -487.84 532.855 L -487.84 531.855 Z" style="stroke-width: 1;"/><path fill="rgb(251,250,244)" stroke="rgb(251,250,244)" stroke-width="1" opacity="1" d="M -373.84 532.855 L -369.84 537.855 L -373.84 532.855 Z" style="stroke-width: 1;"/><path fill="rgb(255,255,255)" stroke="rgb(255,255,255)" stroke-width="1" opacity="1" d="M -256.84 301.855 L -230.34 319.355 L -231.84 318.855 L -264.34 307.855 C -265.07 306.055 -264.57 305.389 -262.84 305.855 L -256.84 301.855 Z" style="stroke-width: 1;"/><path fill="rgb(255,255,255)" stroke="rgb(255,255,255)" stroke-width="1" opacity="1" d="M -269.84 309.855 L -270.34 311.355 C -285.07 350.289 -306.57 382.455 -334.84 407.855 L -351.84 420.855 L -351.34 419.355 C -336 379.689 -313.84 346.855 -284.84 320.855 L -269.84 309.855 Z" style="stroke-width: 1;"/><path fill="rgb(255,255,255)" stroke="rgb(255,255,255)" stroke-width="1" opacity="1" d="M -214.34 331.855 L -201.34 341.355 L -202.84 340.855 L -215.34 336.855 L -214.34 331.855 Z" style="stroke-width: 1;"/><path fill="rgb(255,255,255)" stroke="rgb(255,255,255)" stroke-width="1" opacity="1" d="M -194.84 346.855 L -179.34 360.355 L -180.84 360.855 L -197.34 354.855 L -194.84 346.855 Z" style="stroke-width: 1;"/><path fill="rgb(254,229,153)" stroke="rgb(254,229,153)" stroke-width="1" opacity="1" d="M -72.841 197.847 L -70.841 197.847 L -64.341 204.357 L -26.341 245.355 C -46.201 274.822 -63.871 306.489 -79.341 340.355 L -97.341 384.355 L -110.34 427.355 L -107.84 425.855 L -66.341 386.355 C -44.801 363.222 -24.801 338.555 -6.341 312.355 C 14.999 282.022 34.829 250.189 53.159 216.855 L 95.659 260.355 C 59.929 327.622 16.099 386.789 -35.841 437.855 L -78.841 476.855 L -106.84 496.855 L -148.34 458.355 L -124.34 440.355 L -165.34 404.355 C -149.2 352.155 -127.54 305.489 -100.34 264.355 L -101.84 264.855 L -143.84 286.855 L -147.34 281.355 L -164.34 239.855 L -118.84 215.855 L -72.841 197.847 Z" style="stroke-width: 1;"/><path fill="rgb(254,229,153)" stroke="rgb(254,229,153)" stroke-width="1" opacity="1" d="M -734.84 200.847 L -658.34 254.855 L -666.34 279.355 L -682.34 312.355 L -709.34 356.855 L -713.84 355.855 L -756.34 331.355 L -732.34 285.355 L -720.34 253.355 L -721.84 252.855 C -748.5 266.522 -771.34 284.022 -790.34 305.355 C -804.74 320.955 -817.39 338.289 -828.34 357.355 L -844.34 391.355 C -849.2 403.622 -852.53 417.122 -854.34 431.855 L -829.84 429.855 L -790.84 421.855 C -771.97 416.722 -754.63 410.055 -738.84 401.855 L -723.34 447.355 L -745.84 460.855 L -772.84 472.855 L -792.84 479.855 L -838.84 490.855 L -875.84 494.855 L -926.34 447.355 L -920.34 422.355 L -911.34 395.355 L -902.34 373.355 L -883.34 336.355 C -864.34 303.689 -841.16 275.189 -813.84 250.855 C -791.37 230.322 -765.03 213.655 -734.84 200.847 Z" style="stroke-width: 1;"/><path fill="rgb(254,229,153)" stroke="rgb(254,229,153)" stroke-width="1" opacity="1" d="M -288.84 202.847 C -252.1 220.789 -220.6 243.955 -194.34 272.355 L -212.34 328.355 L -225.34 360.355 L -236.34 382.355 C -249.54 407.155 -266.04 428.655 -285.84 446.855 C -315.84 474.855 -355.17 493.522 -403.84 502.855 L -463.34 448.355 L -462.34 434.355 L -457.34 406.355 L -452.34 386.355 L -438.34 348.355 C -422.6 314.089 -401.77 284.922 -375.84 260.855 C -350.97 237.389 -321.97 218.055 -288.84 202.847 Z M -291.34 265.855 C -305.34 273.189 -317.67 282.189 -328.34 292.855 C -350.34 314.189 -368 339.522 -381.34 368.855 L -395.34 406.855 L -400.34 430.855 L -401.34 444.855 C -389.34 442.189 -378 437.855 -367.34 431.855 C -354.67 424.522 -342.67 415.855 -331.34 405.855 C -316 391.189 -302.67 374.855 -291.34 356.855 C -282 341.522 -274.34 324.855 -268.34 306.855 L -215.34 325.855 L -214.34 325.855 C -237.67 303.189 -263.34 283.189 -291.34 265.855 Z" style="stroke-width: 1;"/><path fill="rgb(254,229,153)" stroke="rgb(254,229,153)" stroke-width="1" opacity="1" d="M -541.84 204.855 L -510.34 236.355 L -501.34 246.355 L -501.34 248.355 C -541.74 303.755 -578.07 362.922 -610.34 425.855 L -559.84 434.855 L -504.34 440.855 L -521.34 496.855 L -582.84 490.855 L -636.84 480.855 L -686.34 436.355 C -668.66 399.689 -649.34 364.689 -628.34 331.355 C -601.13 287.555 -572.29 245.389 -541.84 204.855 Z" style="stroke-width: 1;"/><path fill="rgb(197,225,232)" stroke="rgb(197,225,232)" stroke-width="1" opacity="1" d="M -35.841 233.855 L -15.341 255.355 L -9.341 262.355 L -9.341 264.355 C -36.401 304.289 -59.071 348.622 -77.341 397.355 L -94.841 414.855 L -109.84 427.855 L -110.34 426.355 L -98.341 387.355 L -78.341 338.355 C -63.071 305.289 -45.741 274.289 -26.341 245.355 L -35.841 233.855 Z" style="stroke-width: 1;"/><path fill="rgb(197,225,232)" stroke="rgb(197,225,232)" stroke-width="1" opacity="1" d="M -499.84 246.855 L -483.34 265.355 C -520.87 316.955 -554.87 371.789 -585.34 429.855 L -610.34 425.855 C -577.79 362.189 -540.97 302.522 -499.84 246.855 Z" style="stroke-width: 1;"/><path fill="rgb(197,225,232)" stroke="rgb(197,225,232)" stroke-width="1" opacity="1" d="M -721.84 252.855 L -720.34 253.355 L -729.34 278.355 L -735.84 290.855 C -750.76 300.922 -763.93 312.755 -775.34 326.355 C -789.53 341.822 -801.87 359.155 -812.34 378.355 L -827.34 411.355 L -832.34 429.855 L -854.34 431.855 L -852.34 418.355 L -845.34 394.355 L -829.34 359.355 C -815 333.689 -797.5 311.189 -776.84 291.855 C -760.97 276.389 -742.63 263.389 -721.84 252.855 Z" style="stroke-width: 1;"/><path fill="rgb(197,225,232)" stroke="rgb(197,225,232)" stroke-width="1" opacity="1" d="M 96.159 259.855 L 113.659 278.355 C 74.059 352.089 24.899 416.255 -33.841 470.855 C -50.841 486.855 -69.171 501.522 -88.841 514.855 L -112.34 493.355 L -110.84 492.855 L -105.84 496.855 C -76.371 476.322 -49.541 453.155 -25.341 427.355 C 22.199 378.555 62.699 322.722 96.159 259.855 Z" style="stroke-width: 1;"/><path fill="rgb(197,225,232)" stroke="rgb(197,225,232)" stroke-width="1" opacity="1" d="M -658.84 260.855 L -641.34 274.355 L -642.34 277.355 L -642.34 279.355 C -654.93 315.422 -671.76 347.255 -692.84 374.855 L -738.34 349.855 L -734.84 343.855 C -727.29 349.589 -718.79 353.922 -709.34 356.855 C -689.39 328.255 -672.57 296.255 -658.84 260.855 Z" style="stroke-width: 1;"/><path fill="rgb(197,225,232)" stroke="rgb(197,225,232)" stroke-width="1" opacity="1" d="M -100.84 263.855 L -100.34 265.355 L -123.84 302.855 L -125.84 303.855 L -129.34 298.355 L -135.34 281.855 L -100.84 263.855 Z" style="stroke-width: 1;"/><path fill="rgb(197,225,232)" stroke="rgb(197,225,232)" stroke-width="1" opacity="1" d="M -291.84 265.855 C -263.57 283.255 -237.74 303.089 -214.34 325.355 L -215.84 325.855 C -233.77 310.122 -253.44 296.122 -274.84 283.855 C -293.3 294.055 -309.14 306.889 -322.34 322.355 C -337 339.355 -349.67 358.355 -360.34 379.355 C -369.47 396.689 -376.14 416.189 -380.34 437.855 L -401.34 444.855 L -398.34 419.355 L -394.34 403.355 L -380.34 366.355 C -367 338.689 -350.17 314.522 -329.84 293.855 C -318.9 282.789 -306.24 273.455 -291.84 265.855 Z" style="stroke-width: 1;"/><path fill="rgb(197,225,232)" stroke="rgb(197,225,232)" stroke-width="1" opacity="1" d="M -193.84 273.855 L -176.34 290.355 L -194.34 345.355 L -197.34 349.355 L -199.34 358.355 L -219.34 401.355 C -231.94 424.755 -247.44 445.255 -265.84 462.855 C -280.97 477.055 -298.3 489.055 -317.84 498.855 L -356.84 513.855 L -385.84 520.855 L -429.34 480.355 L -420.84 487.855 L -407.84 499.855 L -401.84 502.855 L -361.84 491.855 L -329.84 477.855 C -306.3 465.389 -286.14 449.555 -269.34 430.355 C -246.67 404.022 -228.84 372.855 -215.84 336.855 L -196.84 343.855 L -203.84 335.855 L -212.34 329.855 L -212.34 326.355 L -195.34 275.355 L -193.84 273.855 Z" style="stroke-width: 1;"/><path fill="rgb(197,225,232)" stroke="rgb(197,225,232)" stroke-width="1" opacity="1" d="M -722.84 420.855 L -720.34 422.355 L -705.34 465.355 L -738.84 483.855 L -775.84 497.855 L -811.84 506.855 L -857.84 512.855 L -891.34 481.355 L -886.84 484.855 L -875.84 494.855 L -870.84 494.855 L -869.84 493.855 L -859.84 493.855 L -858.84 492.855 L -851.84 492.855 L -850.84 491.855 L -832.84 489.855 L -795.84 480.855 L -751.84 463.855 L -723.34 447.355 L -730.34 423.855 L -722.84 420.855 Z" style="stroke-width: 1;"/><path fill="rgb(197,225,232)" stroke="rgb(197,225,232)" stroke-width="1" opacity="1" d="M -145.84 421.855 L -124.34 440.355 L -125.84 440.855 L -143.84 424.855 L -145.84 421.855 Z" style="stroke-width: 1;"/><path fill="rgb(197,225,232)" stroke="rgb(197,225,232)" stroke-width="1" opacity="1" d="M -666.84 453.855 L -662.84 458.855 L -666.84 453.855 Z" style="stroke-width: 1;"/><path fill="rgb(197,225,232)" stroke="rgb(197,225,232)" stroke-width="1" opacity="1" d="M -509.34 456.855 L -487.34 458.855 L -491.34 472.355 L -491.34 476.355 L -503.34 514.855 L -506.84 513.855 L -527.84 512.855 L -528.84 511.855 L -537.84 511.855 L -546.84 509.855 L -562.84 508.855 L -617.84 498.855 L -620.84 497.855 L -656.34 464.355 L -648.84 470.855 L -638.84 479.855 L -632.84 481.855 L -575.84 491.855 L -521.34 496.855 L -509.34 460.355 L -509.34 456.855 Z" style="stroke-width: 1;"/><path fill="rgb(197,225,232)" stroke="rgb(197,225,232)" stroke-width="1" opacity="1" d="M -440.84 468.855 L -437.84 472.855 L -440.84 468.855 Z" style="stroke-width: 1;"/><path fill="rgb(197,225,232)" stroke="rgb(197,225,232)" stroke-width="1" opacity="1" d="M -895.84 475.855 L -893.84 478.855 L -895.84 475.855 Z" style="stroke-width: 1;"/><path fill="rgb(197,225,232)" stroke="rgb(197,225,232)" stroke-width="1" opacity="1" d="M -122.84 481.855 L -119.84 485.855 L -122.84 481.855 Z" style="stroke-width: 1;"/></g></svg>