<?xml version="1.0" encoding="UTF-8" standalone="no"?>
<svg
   viewBox="0 0 1058.0013 447.00708"
   version="1.1"
   desc="Created on https://convert2svg.com/"
   id="svg181"
   sodipodi:docname="CLOV (5).svg"
   inkscape:export-filename="CLOV222).svg"
   inkscape:export-xdpi="72"
   inkscape:export-ydpi="72"
   width="1058.0013"
   height="447.00708"
   xmlns:inkscape="http://www.inkscape.org/namespaces/inkscape"
   xmlns:sodipodi="http://sodipodi.sourceforge.net/DTD/sodipodi-0.dtd"
   xmlns="http://www.w3.org/2000/svg"
   xmlns:svg="http://www.w3.org/2000/svg">
  <defs
     id="defs181" />
  <sodipodi:namedview
     id="namedview181"
     pagecolor="#ffffff"
     bordercolor="#000000"
     borderopacity="0.25"
     inkscape:showpageshadow="2"
     inkscape:pageopacity="0.0"
     inkscape:pagecheckerboard="0"
     inkscape:deskcolor="#d1d1d1">
    <inkscape:page
       x="0"
       y="0"
       width="1058.0013"
       height="447.00708"
       id="page2"
       margin="0"
       bleed="0" />
  </sodipodi:namedview>
  <path
     fill="#ffd966"
     stroke="#ffd966"
     stroke-width="1"
     opacity="1"
     d="M 87.001307,1.503891 H 194.50131 v 96 l -50.5,1 q -11,1.999999 -16.5,9.499999 l -5,8 -2,11 v 192 q 2.8,1.7 1,8 l 3,8 10.5,11.5 7,2 h 11 l 1,1 h 44.5 v 96 H 72.001307 l -1,-1 -19,-1 -9,-3 q -11.8,-4.2 -19.5,-12.5 -9.8,-11.2 -13.9999998,-28 l -4,-18 -1,-15 -1,-1 v -10 l -1,-1 v -18 l -1,-1 v -217 l 1,-1 v -13 l 1,-1 2,-33.999999 4,-20 7.9999998,-20 11.5,-13.5 22,-11 11,-2 h 8 l 1,-1 h 15 z"
     id="path1" />
  <path
     fill="#ffd966"
     stroke="#ffd966"
     stroke-width="1"
     opacity="1"
     d="m 220.00131,1.503891 h 136 l 0.5,1.5 -6,30 v 7 l -3,17 v 11 l -1,1 v 19 l -1,1 V 349.50389 l 6.5,-1 h 16 l 1,-1 h 16 l 1,-1 h 16 l 1,-1 h 16 l 6.5,-1 -21,101 h -178 V 75.003891 l -1,-1 v -23 l -1,-1 -1,-24 -1,-1 -2,-22 z"
     id="path2" />
  <path
     fill="#ffd966"
     stroke="#ffd966"
     stroke-width="1"
     opacity="1"
     d="m 548.00131,1.503891 h 86 l 1,1 h 9 l 1,1 12,1 q 32.8,6.7 50.5,28.5 l 11,18 8,22 4,17 2,21.999999 1,1 1,30 1,1 v 159 l -1,1 -1,31 -1,1 -2,21 -4,18 -12,29 q -7.5,12.5 -18.5,21.5 -9,7.5 -21,12 l -27,7 h -9 l -1,1 h -94 l -1,-1 -15,-1 -26,-8 q -16.6,-7.9 -27.5,-21.5 -12.5,-16.5 -19,-39 l -4,-18 -2,-22 -1,-1 -1,-30 -1,-1 v -158 l 1,-1 v -18 l 1,-1 1,-21 5,-27.999999 q 5.2,-18.8 14,-34 6.7,-11.3 16.5,-19.5 l 20,-12 16,-5 17,-3 h 9 z m 37.5,92 -6,3 q -7,4.999999 -11,13.999999 l -3,14 v 201 l 3,14 4,7 q 5,7 16,9 10,0 16,-4 l 6,-6 6,-17 v -207 l -6,-17 q -5,-7.999999 -13,-10.999999 z"
     id="path3" />
  <path
     fill="#ffd966"
     stroke="#ffd966"
     stroke-width="1"
     opacity="1"
     d="m 769.50131,1.503891 h 120 V 334.00389 l 3,11 6.5,7.5 7,3 8,1 10,-2 8.5,-6.5 3,-6 2,-9 V 1.503891 H 1056.5013 V 222.00389 l -1,1 -1,18 -5,28 -8,32 -11,34 -20,49 -31.99999,61.5 h -129.5 l -0.5,-1.5 q -27,-44.5 -47,-96 l -16,-47 -11,-46 -2,-20 -1,-1 v -8 l -1,-1 v -15 l -1,-1 z"
     id="path4" />
  <path
     fill="#fff6de"
     stroke="#fff6de"
     stroke-width="1"
     opacity="1"
     d="m 106.00131,0.50389099 h 89.5 V 98.503891 l -28,-0.5 27,-0.5 v -96 h -88.5 z"
     id="path5" />
  <path
     fill="#fff6de"
     stroke="#fff6de"
     stroke-width="1"
     opacity="1"
     d="m 220.00131,0.50389099 136.5,0.50000001 -136.5,0.5 z"
     id="path6" />
  <path
     fill="#fff6de"
     stroke="#fff6de"
     stroke-width="1"
     opacity="1"
     d="m 559.00131,0.50389099 64.5,0.50000001 -64.5,0.5 z"
     id="path7" />
  <path
     fill="#fff6de"
     stroke="#fff6de"
     stroke-width="1"
     opacity="1"
     d="m 770.00131,0.50389099 119.5,0.50000001 -119.5,0.5 z"
     id="path8" />
  <path
     fill="#fff6de"
     stroke="#fff6de"
     stroke-width="1"
     opacity="1"
     d="M 938.00131,0.50389099 H 1057.5013 V 215.00389 h -1 V 1.503891 H 938.00131 Z"
     id="path9" />
  <path
     fill="#fff6de"
     stroke="#fff6de"
     stroke-width="1"
     opacity="1"
     d="m 78.001307,1.503891 8.5,0.5 -8.5,0.5 z"
     id="path10" />
  <path
     fill="#fff6de"
     stroke="#fff6de"
     stroke-width="1"
     opacity="1"
     d="m 542.00131,1.503891 5.5,0.5 -5.5,0.5 z"
     id="path11" />
  <path
     fill="#fff6de"
     stroke="#fff6de"
     stroke-width="1"
     opacity="1"
     d="m 635.00131,1.503891 5.5,0.5 -5.5,0.5 z"
     id="path12" />
  <path
     fill="#fff6de"
     stroke="#fff6de"
     stroke-width="1"
     opacity="1"
     d="m 67.001307,2.503891 3.5,0.5 -3.5,0.5 z"
     id="path13" />
  <path
     fill="#fff6de"
     stroke="#fff6de"
     stroke-width="1"
     opacity="1"
     d="m 220.00131,2.503891 0.5,2.5 h -1 z"
     id="path14" />
  <path
     fill="#fff6de"
     stroke="#fff6de"
     stroke-width="1"
     opacity="1"
     d="m 535.00131,2.503891 2.5,0.5 -2.5,0.5 z"
     id="path15" />
  <path
     fill="#fff6de"
     stroke="#fff6de"
     stroke-width="1"
     opacity="1"
     d="m 645.00131,2.503891 3.5,0.5 -3.5,0.5 z"
     id="path16" />
  <path
     fill="#fff6de"
     stroke="#fff6de"
     stroke-width="1"
     opacity="1"
     d="m 58.001307,3.503891 3.5,0.5 -3.5,0.5 z"
     id="path17" />
  <path
     fill="#fff6de"
     stroke="#fff6de"
     stroke-width="1"
     opacity="1"
     d="m 528.00131,3.503891 2.5,0.5 -2.5,0.5 z"
     id="path18" />
  <path
     fill="#fff6de"
     stroke="#fff6de"
     stroke-width="1"
     opacity="1"
     d="m 652.00131,3.503891 2.5,0.5 -2.5,0.5 z"
     id="path19" />
  <path
     fill="#fff6de"
     stroke="#fff6de"
     stroke-width="1"
     opacity="1"
     d="m 53.001307,4.503891 2.5,0.5 -2.5,0.5 z"
     id="path20" />
  <path
     fill="#fff6de"
     stroke="#fff6de"
     stroke-width="1"
     opacity="1"
     d="m 523.00131,4.503891 2.5,0.5 -2.5,0.5 z"
     id="path21" />
  <path
     fill="#fff6de"
     stroke="#fff6de"
     stroke-width="1"
     opacity="1"
     d="m 355.00131,8.503891 0.5,2.5 h -1 z"
     id="path22" />
  <path
     fill="#fff6de"
     stroke="#fff6de"
     stroke-width="1"
     opacity="1"
     d="m 221.00131,9.503891 0.5,2.5 h -1 z"
     id="path23" />
  <path
     fill="#fff6de"
     stroke="#fff6de"
     stroke-width="1"
     opacity="1"
     d="m 34.001307,12.503891 -1,2 z"
     id="path24" />
  <path
     fill="#fff6de"
     stroke="#fff6de"
     stroke-width="1"
     opacity="1"
     d="m 354.00131,14.503891 0.5,2.5 h -1 z"
     id="path25" />
  <path
     fill="#fff6de"
     stroke="#fff6de"
     stroke-width="1"
     opacity="1"
     d="m 494.00131,15.503891 -1,2 z"
     id="path26" />
  <path
     fill="#fff6de"
     stroke="#fff6de"
     stroke-width="1"
     opacity="1"
     d="m 688.00131,15.503891 1,2 z"
     id="path27" />
  <path
     fill="#fff6de"
     stroke="#fff6de"
     stroke-width="1"
     opacity="1"
     d="m 222.00131,16.503891 0.5,4.5 h -1 z"
     id="path28" />
  <path
     fill="#fff6de"
     stroke="#fff6de"
     stroke-width="1"
     opacity="1"
     d="m 491.00131,17.503891 -1,2 z"
     id="path29" />
  <path
     fill="#fff6de"
     stroke="#fff6de"
     stroke-width="1"
     opacity="1"
     d="m 691.00131,17.503891 1,2 z"
     id="path30" />
  <path
     fill="#fff6de"
     stroke="#fff6de"
     stroke-width="1"
     opacity="1"
     d="m 353.00131,19.503891 0.5,2.5 h -1 z"
     id="path31" />
  <path
     fill="#fff6de"
     stroke="#fff6de"
     stroke-width="1"
     opacity="1"
     d="m 487.00131,20.503891 -1,2 z"
     id="path32" />
  <path
     fill="#fff6de"
     stroke="#fff6de"
     stroke-width="1"
     opacity="1"
     d="m 695.00131,20.503891 1,2 z"
     id="path33" />
  <path
     fill="#fff6de"
     stroke="#fff6de"
     stroke-width="1"
     opacity="1"
     d="m 22.001307,23.503891 -1,2 z"
     id="path34" />
  <path
     fill="#fff6de"
     stroke="#fff6de"
     stroke-width="1"
     opacity="1"
     d="m 700.00131,24.503891 5,6 z"
     id="path35" />
  <path
     fill="#fff6de"
     stroke="#fff6de"
     stroke-width="1"
     opacity="1"
     d="m 223.00131,25.503891 0.5,5.5 h -1 z"
     id="path36" />
  <path
     fill="#fff6de"
     stroke="#fff6de"
     stroke-width="1"
     opacity="1"
     d="m 352.00131,25.503891 0.5,2.5 h -1 z"
     id="path37" />
  <path
     fill="#fff6de"
     stroke="#fff6de"
     stroke-width="1"
     opacity="1"
     d="m 480.00131,26.503891 -2,3 z"
     id="path38" />
  <path
     fill="#fff6de"
     stroke="#fff6de"
     stroke-width="1"
     opacity="1"
     d="m 351.00131,32.503891 0.5,3.5 h -1 z"
     id="path39" />
  <path
     fill="#fff6de"
     stroke="#fff6de"
     stroke-width="1"
     opacity="1"
     d="m 475.00131,32.503891 -1,2 z"
     id="path40" />
  <path
     fill="#fff6de"
     stroke="#fff6de"
     stroke-width="1"
     opacity="1"
     d="m 708.00131,33.503891 1,2 z"
     id="path41" />
  <path
     fill="#fff6de"
     stroke="#fff6de"
     stroke-width="1"
     opacity="1"
     d="m 224.00131,36.503891 0.5,6.5 h -1 z"
     id="path42" />
  <path
     fill="#fff6de"
     stroke="#fff6de"
     stroke-width="1"
     opacity="1"
     d="m 472.00131,36.503891 -1,2 z"
     id="path43" />
  <path
     fill="#fff6de"
     stroke="#fff6de"
     stroke-width="1"
     opacity="1"
     d="m 711.00131,37.503891 1,2 z"
     id="path44" />
  <path
     fill="#fff6de"
     stroke="#fff6de"
     stroke-width="1"
     opacity="1"
     d="m 470.00131,39.503891 -1,2 z"
     id="path45" />
  <path
     fill="#fff6de"
     stroke="#fff6de"
     stroke-width="1"
     opacity="1"
     d="m 350.00131,40.503891 0.5,3.5 h -1 z"
     id="path46" />
  <path
     fill="#fff6de"
     stroke="#fff6de"
     stroke-width="1"
     opacity="1"
     d="m 714.00131,42.503891 1,2 z"
     id="path47" />
  <path
     fill="#fff6de"
     stroke="#fff6de"
     stroke-width="1"
     opacity="1"
     d="m 349.00131,48.503891 0.5,3.5 h -1 z"
     id="path48" />
  <path
     fill="#fff6de"
     stroke="#fff6de"
     stroke-width="1"
     opacity="1"
     d="m 465.00131,48.503891 -0.5,1.5 -0.5,1.5 -0.5,-1.5 z"
     id="path49" />
  <path
     fill="#fff6de"
     stroke="#fff6de"
     stroke-width="1"
     opacity="1"
     d="m 225.00131,50.503891 0.5,9.5 h -1 z"
     id="path50" />
  <path
     fill="#fff6de"
     stroke="#fff6de"
     stroke-width="1"
     opacity="1"
     d="m 348.00131,56.503891 0.5,5.5 h -1 z"
     id="path51" />
  <path
     fill="#fff6de"
     stroke="#fff6de"
     stroke-width="1"
     opacity="1"
     d="m 6.0013072,65.503891 0.5,3.5 h -1 z"
     id="path52" />
  <path
     fill="#fff6de"
     stroke="#fff6de"
     stroke-width="1"
     opacity="1"
     d="m 347.00131,68.503891 0.5,8.5 h -1 z"
     id="path53" />
  <path
     fill="#fff6de"
     stroke="#fff6de"
     stroke-width="1"
     opacity="1"
     d="m 5.0013072,74.503891 0.5,5.5 h -1 z"
     id="path54" />
  <path
     fill="#fff6de"
     stroke="#fff6de"
     stroke-width="1"
     opacity="1"
     d="m 226.00131,74.503891 0.5,37.499999 h -1 z"
     id="path55" />
  <path
     fill="#fff6de"
     stroke="#fff6de"
     stroke-width="1"
     opacity="1"
     d="m 728.00131,77.503891 0.5,2.5 h -1 z"
     id="path56" />
  <path
     fill="#fff6de"
     stroke="#fff6de"
     stroke-width="1"
     opacity="1"
     d="m 4.0013072,85.503891 0.5,5.5 h -1 z"
     id="path57" />
  <path
     fill="#fff6de"
     stroke="#fff6de"
     stroke-width="1"
     opacity="1"
     d="m 452.00131,86.503891 0.5,2.5 h -1 z"
     id="path58" />
  <path
     fill="#fff6de"
     stroke="#fff6de"
     stroke-width="1"
     opacity="1"
     d="m 730.00131,86.503891 0.5,2.5 h -1 z"
     id="path59" />
  <path
     fill="#fff6de"
     stroke="#fff6de"
     stroke-width="1"
     opacity="1"
     d="m 346.00131,88.503891 0.5,259.999999 5,0.5 -6,0.5 z"
     id="path60" />
  <path
     fill="#fff6de"
     stroke="#fff6de"
     stroke-width="1"
     opacity="1"
     d="m 451.00131,92.503891 0.5,3.5 h -1 z"
     id="path61" />
  <path
     fill="#fff6de"
     stroke="#fff6de"
     stroke-width="1"
     opacity="1"
     d="m 731.00131,92.503891 0.5,3.5 h -1 z"
     id="path62" />
  <path
     fill="#fff6de"
     stroke="#fff6de"
     stroke-width="1"
     opacity="1"
     d="m 585.00131,93.503891 2.5,0.5 -2.5,0.5 z"
     id="path63" />
  <path
     fill="#fff6de"
     stroke="#fff6de"
     stroke-width="1"
     opacity="1"
     d="m 595.00131,93.503891 2.5,0.5 -2.5,0.5 z"
     id="path64" />
  <path
     fill="#fff6de"
     stroke="#fff6de"
     stroke-width="1"
     opacity="1"
     d="m 579.00131,96.503891 -1,2 z"
     id="path65" />
  <path
     fill="#fff6de"
     stroke="#fff6de"
     stroke-width="1"
     opacity="1"
     d="m 603.00131,96.503891 1,2 z"
     id="path66" />
  <path
     fill="#fff6de"
     stroke="#fff6de"
     stroke-width="1"
     opacity="1"
     d="m 3.0013072,97.503891 0.5,6.499999 h -1 z"
     id="path67" />
  <path
     fill="#fff6de"
     stroke="#fff6de"
     stroke-width="1"
     opacity="1"
     d="m 144.00131,98.503891 5.5,0.5 -5.5,0.5 z"
     id="path68" />
  <path
     fill="#fff6de"
     stroke="#fff6de"
     stroke-width="1"
     opacity="1"
     d="m 450.00131,99.503891 0.5,3.499999 h -1 z"
     id="path69" />
  <path
     fill="#fff6de"
     stroke="#fff6de"
     stroke-width="1"
     opacity="1"
     d="m 576.00131,99.503891 -3,3.999999 z"
     id="path70" />
  <path
     fill="#fff6de"
     stroke="#fff6de"
     stroke-width="1"
     opacity="1"
     d="m 732.00131,99.503891 0.5,3.499999 h -1 z"
     id="path71" />
  <path
     fill="#fff6de"
     stroke="#fff6de"
     stroke-width="1"
     opacity="1"
     d="m 608.00131,101.50389 2,3 z"
     id="path72" />
  <path
     fill="#fff6de"
     stroke="#fff6de"
     stroke-width="1"
     opacity="1"
     d="m 132.00131,103.50389 -4,5 z"
     id="path73" />
  <path
     fill="#fff6de"
     stroke="#fff6de"
     stroke-width="1"
     opacity="1"
     d="m 572.00131,104.50389 -1,2 z"
     id="path74" />
  <path
     fill="#fff6de"
     stroke="#fff6de"
     stroke-width="1"
     opacity="1"
     d="m 733.00131,107.50389 0.5,4.5 h -1 z"
     id="path75" />
  <path
     fill="#fff6de"
     stroke="#fff6de"
     stroke-width="1"
     opacity="1"
     d="m 449.00131,108.50389 0.5,4.5 h -1 z"
     id="path76" />
  <path
     fill="#fff6de"
     stroke="#fff6de"
     stroke-width="1"
     opacity="1"
     d="m 126.00131,110.50389 -1,2 z"
     id="path77" />
  <path
     fill="#fff6de"
     stroke="#fff6de"
     stroke-width="1"
     opacity="1"
     d="m 2.0013072,111.50389 0.5,6.5 h -1 z"
     id="path78" />
  <path
     fill="#fff6de"
     stroke="#fff6de"
     stroke-width="1"
     opacity="1"
     d="m 734.00131,117.50389 0.5,6.5 h -1 z"
     id="path79" />
  <path
     fill="#fff6de"
     stroke="#fff6de"
     stroke-width="1"
     opacity="1"
     d="m 122.00131,118.50389 0.5,2.5 h -1 z"
     id="path80" />
  <path
     fill="#fff6de"
     stroke="#fff6de"
     stroke-width="1"
     opacity="1"
     d="m 448.00131,119.50389 0.5,5.5 h -1 z"
     id="path81" />
  <path
     fill="#fff6de"
     stroke="#fff6de"
     stroke-width="1"
     opacity="1"
     d="m 616.00131,120.50389 0.5,7.5 h -1 z"
     id="path82" />
  <path
     fill="#fff6de"
     stroke="#fff6de"
     stroke-width="1"
     opacity="1"
     d="m 566.00131,123.50389 0.5,201.5 h -1 z"
     id="path83" />
  <path
     fill="#fff6de"
     stroke="#fff6de"
     stroke-width="1"
     opacity="1"
     d="m 121.00131,126.50389 0.5,10.5 h -1 z"
     id="path84" />
  <path
     fill="#fff6de"
     stroke="#fff6de"
     stroke-width="1"
     opacity="1"
     d="m 1.0013072,128.50389 0.5,191.5 H 0.50130719 Z"
     id="path85" />
  <path
     fill="#fff6de"
     stroke="#fff6de"
     stroke-width="1"
     opacity="1"
     d="m 447.00131,132.50389 0.5,11.5 h -1 z"
     id="path86" />
  <path
     fill="#fff6de"
     stroke="#fff6de"
     stroke-width="1"
     opacity="1"
     d="m 735.00131,132.50389 0.5,10.5 h -1 z"
     id="path87" />
  <path
     fill="#fff6de"
     stroke="#fff6de"
     stroke-width="1"
     opacity="1"
     d="m 736.00131,165.50389 0.5,115.5 h -1 z"
     id="path88" />
  <path
     fill="#fff6de"
     stroke="#fff6de"
     stroke-width="1"
     opacity="1"
     d="m 446.00131,167.50389 0.5,111.5 h -1 z"
     id="path89" />
  <path
     fill="#fff6de"
     stroke="#fff6de"
     stroke-width="1"
     opacity="1"
     d="m 770.00131,209.50389 0.5,9.5 h -1 z"
     id="path90" />
  <path
     fill="#fff6de"
     stroke="#fff6de"
     stroke-width="1"
     opacity="1"
     d="m 1056.0013,222.50389 0.5,5.5 h -1 z"
     id="path91" />
  <path
     fill="#fff6de"
     stroke="#fff6de"
     stroke-width="1"
     opacity="1"
     d="m 771.00131,225.50389 0.5,4.5 h -1 z"
     id="path92" />
  <path
     fill="#fff6de"
     stroke="#fff6de"
     stroke-width="1"
     opacity="1"
     d="m 1055.0013,232.50389 0.5,3.5 h -1 z"
     id="path93" />
  <path
     fill="#fff6de"
     stroke="#fff6de"
     stroke-width="1"
     opacity="1"
     d="m 772.00131,234.50389 0.5,4.5 h -1 z"
     id="path94" />
  <path
     fill="#fff6de"
     stroke="#fff6de"
     stroke-width="1"
     opacity="1"
     d="m 1054.0013,241.50389 0.5,2.5 h -1 z"
     id="path95" />
  <path
     fill="#fff6de"
     stroke="#fff6de"
     stroke-width="1"
     opacity="1"
     d="m 773.00131,242.50389 0.5,2.5 h -1 z"
     id="path96" />
  <path
     fill="#fff6de"
     stroke="#fff6de"
     stroke-width="1"
     opacity="1"
     d="m 1053.0013,247.50389 0.5,2.5 h -1 z"
     id="path97" />
  <path
     fill="#fff6de"
     stroke="#fff6de"
     stroke-width="1"
     opacity="1"
     d="m 774.00131,249.50389 0.5,2.5 h -1 z"
     id="path98" />
  <path
     fill="#fff6de"
     stroke="#fff6de"
     stroke-width="1"
     opacity="1"
     d="m 1052.0013,253.50389 0.5,2.5 h -1 z"
     id="path99" />
  <path
     fill="#fff6de"
     stroke="#fff6de"
     stroke-width="1"
     opacity="1"
     d="m 1047.0013,277.50389 0.5,2.5 h -1 z"
     id="path100" />
  <path
     fill="#fff6de"
     stroke="#fff6de"
     stroke-width="1"
     opacity="1"
     d="m 447.00131,303.50389 0.5,10.5 h -1 z"
     id="path101" />
  <path
     fill="#fff6de"
     stroke="#fff6de"
     stroke-width="1"
     opacity="1"
     d="m 735.00131,303.50389 0.5,11.5 h -1 z"
     id="path102" />
  <path
     fill="#fff6de"
     stroke="#fff6de"
     stroke-width="1"
     opacity="1"
     d="m 121.00131,308.50389 0.5,10.5 h -1 z"
     id="path103" />
  <path
     fill="#fff6de"
     stroke="#fff6de"
     stroke-width="1"
     opacity="1"
     d="m 616.00131,320.50389 0.5,7.5 h -1 z"
     id="path104" />
  <path
     fill="#fff6de"
     stroke="#fff6de"
     stroke-width="1"
     opacity="1"
     d="m 448.00131,322.50389 0.5,5.5 h -1 z"
     id="path105" />
  <path
     fill="#fff6de"
     stroke="#fff6de"
     stroke-width="1"
     opacity="1"
     d="m 734.00131,323.50389 0.5,5.5 h -1 z"
     id="path106" />
  <path
     fill="#fff6de"
     stroke="#fff6de"
     stroke-width="1"
     opacity="1"
     d="m 122.00131,324.50389 0.5,2.5 h -1 z"
     id="path107" />
  <path
     fill="#fff6de"
     stroke="#fff6de"
     stroke-width="1"
     opacity="1"
     d="m 567.00131,329.50389 0.5,2.5 h -1 z"
     id="path108" />
  <path
     fill="#fff6de"
     stroke="#fff6de"
     stroke-width="1"
     opacity="1"
     d="m 937.00131,329.50389 0.5,3.5 h -1 z"
     id="path109" />
  <path
     fill="#fff6de"
     stroke="#fff6de"
     stroke-width="1"
     opacity="1"
     d="m 615.00131,330.50389 0.5,2.5 h -1 z"
     id="path110" />
  <path
     fill="#fff6de"
     stroke="#fff6de"
     stroke-width="1"
     opacity="1"
     d="m 890.00131,330.50389 0.5,3.5 h -1 z"
     id="path111" />
  <path
     fill="#fff6de"
     stroke="#fff6de"
     stroke-width="1"
     opacity="1"
     d="m 125.00131,334.50389 1,2 z"
     id="path112" />
  <path
     fill="#fff6de"
     stroke="#fff6de"
     stroke-width="1"
     opacity="1"
     d="m 449.00131,334.50389 0.5,4.5 h -1 z"
     id="path113" />
  <path
     fill="#fff6de"
     stroke="#fff6de"
     stroke-width="1"
     opacity="1"
     d="m 733.00131,335.50389 0.5,3.5 h -1 z"
     id="path114" />
  <path
     fill="#fff6de"
     stroke="#fff6de"
     stroke-width="1"
     opacity="1"
     d="m 2.0013072,336.50389 0.5,9.5 h -1 z"
     id="path115" />
  <path
     fill="#fff6de"
     stroke="#fff6de"
     stroke-width="1"
     opacity="1"
     d="m 127.00131,337.50389 1,2 z"
     id="path116" />
  <path
     fill="#fff6de"
     stroke="#fff6de"
     stroke-width="1"
     opacity="1"
     d="m 571.00131,342.50389 1,2 z"
     id="path117" />
  <path
     fill="#fff6de"
     stroke="#fff6de"
     stroke-width="1"
     opacity="1"
     d="m 450.00131,343.50389 0.5,3.5 h -1 z"
     id="path118" />
  <path
     fill="#fff6de"
     stroke="#fff6de"
     stroke-width="1"
     opacity="1"
     d="m 732.00131,343.50389 0.5,3.5 h -1 z"
     id="path119" />
  <path
     fill="#fff6de"
     stroke="#fff6de"
     stroke-width="1"
     opacity="1"
     d="m 134.00131,344.50389 2.5,1.5 -1.5,0.5 z"
     id="path120" />
  <path
     fill="#fff6de"
     stroke="#fff6de"
     stroke-width="1"
     opacity="1"
     d="m 411.00131,344.50389 8.5,0.5 -8.5,0.5 z"
     id="path121" />
  <path
     fill="#fff6de"
     stroke="#fff6de"
     stroke-width="1"
     opacity="1"
     d="m 610.00131,344.50389 -2,3 z"
     id="path122" />
  <path
     fill="#fff6de"
     stroke="#fff6de"
     stroke-width="1"
     opacity="1"
     d="m 893.00131,344.50389 1,2 z"
     id="path123" />
  <path
     fill="#fff6de"
     stroke="#fff6de"
     stroke-width="1"
     opacity="1"
     d="m 394.00131,345.50389 8.5,0.5 -8.5,0.5 z"
     id="path124" />
  <path
     fill="#fff6de"
     stroke="#fff6de"
     stroke-width="1"
     opacity="1"
     d="m 573.00131,345.50389 3,4 z"
     id="path125" />
  <path
     fill="#fff6de"
     stroke="#fff6de"
     stroke-width="1"
     opacity="1"
     d="m 378.00131,346.50389 7.5,0.5 -7.5,0.5 z"
     id="path126" />
  <path
     fill="#fff6de"
     stroke="#fff6de"
     stroke-width="1"
     opacity="1"
     d="m 142.00131,347.50389 4.5,0.5 -4.5,0.5 z"
     id="path127" />
  <path
     fill="#fff6de"
     stroke="#fff6de"
     stroke-width="1"
     opacity="1"
     d="m 361.00131,347.50389 7.5,0.5 -7.5,0.5 z"
     id="path128" />
  <path
     fill="#fff6de"
     stroke="#fff6de"
     stroke-width="1"
     opacity="1"
     d="m 425.00131,347.50389 0.5,2.5 h -1 z"
     id="path129" />
  <path
     fill="#fff6de"
     stroke="#fff6de"
     stroke-width="1"
     opacity="1"
     d="m 895.00131,347.50389 4,5 z"
     id="path130" />
  <path
     fill="#fff6de"
     stroke="#fff6de"
     stroke-width="1"
     opacity="1"
     d="m 932.00131,347.50389 -4,5 z"
     id="path131" />
  <path
     fill="#fff6de"
     stroke="#fff6de"
     stroke-width="1"
     opacity="1"
     d="m 154.00131,348.50389 44.5,0.5 -44.5,0.5 z"
     id="path132" />
  <path
     fill="#fff6de"
     stroke="#fff6de"
     stroke-width="1"
     opacity="1"
     d="m 451.00131,351.50389 0.5,2.5 h -1 z"
     id="path133" />
  <path
     fill="#fff6de"
     stroke="#fff6de"
     stroke-width="1"
     opacity="1"
     d="m 731.00131,351.50389 0.5,2.5 h -1 z"
     id="path134" />
  <path
     fill="#fff6de"
     stroke="#fff6de"
     stroke-width="1"
     opacity="1"
     d="m 588.00131,354.50389 6.5,0.5 -6.5,0.5 z"
     id="path135" />
  <path
     fill="#fff6de"
     stroke="#fff6de"
     stroke-width="1"
     opacity="1"
     d="m 3.0013072,355.50389 0.5,5.5 h -1 z"
     id="path136" />
  <path
     fill="#fff6de"
     stroke="#fff6de"
     stroke-width="1"
     opacity="1"
     d="m 452.00131,357.50389 0.5,2.5 h -1 z"
     id="path137" />
  <path
     fill="#fff6de"
     stroke="#fff6de"
     stroke-width="1"
     opacity="1"
     d="m 730.00131,357.50389 0.5,2.5 h -1 z"
     id="path138" />
  <path
     fill="#fff6de"
     stroke="#fff6de"
     stroke-width="1"
     opacity="1"
     d="m 422.00131,361.50389 0.5,2.5 h -1 z"
     id="path139" />
  <path
     fill="#fff6de"
     stroke="#fff6de"
     stroke-width="1"
     opacity="1"
     d="m 453.00131,362.50389 0.5,2.5 h -1 z"
     id="path140" />
  <path
     fill="#fff6de"
     stroke="#fff6de"
     stroke-width="1"
     opacity="1"
     d="m 729.00131,362.50389 0.5,2.5 h -1 z"
     id="path141" />
  <path
     fill="#fff6de"
     stroke="#fff6de"
     stroke-width="1"
     opacity="1"
     d="m 4.0013072,366.50389 0.5,4.5 h -1 z"
     id="path142" />
  <path
     fill="#fff6de"
     stroke="#fff6de"
     stroke-width="1"
     opacity="1"
     d="m 421.00131,366.50389 0.5,2.5 h -1 z"
     id="path143" />
  <path
     fill="#fff6de"
     stroke="#fff6de"
     stroke-width="1"
     opacity="1"
     d="m 5.0013072,375.50389 0.5,2.5 h -1 z"
     id="path144" />
  <path
     fill="#fff6de"
     stroke="#fff6de"
     stroke-width="1"
     opacity="1"
     d="m 418.00131,380.50389 0.5,2.5 h -1 z"
     id="path145" />
  <path
     fill="#fff6de"
     stroke="#fff6de"
     stroke-width="1"
     opacity="1"
     d="m 417.00131,385.50389 0.5,2.5 h -1 z"
     id="path146" />
  <path
     fill="#fff6de"
     stroke="#fff6de"
     stroke-width="1"
     opacity="1"
     d="m 7.0013072,387.50389 0.5,2.5 h -1 z"
     id="path147" />
  <path
     fill="#fff6de"
     stroke="#fff6de"
     stroke-width="1"
     opacity="1"
     d="m 467.00131,402.50389 1,2 z"
     id="path148" />
  <path
     fill="#fff6de"
     stroke="#fff6de"
     stroke-width="1"
     opacity="1"
     d="m 413.00131,404.50389 0.5,2.5 h -1 z"
     id="path149" />
  <path
     fill="#fff6de"
     stroke="#fff6de"
     stroke-width="1"
     opacity="1"
     d="m 714.00131,404.50389 -1,2 z"
     id="path150" />
  <path
     fill="#fff6de"
     stroke="#fff6de"
     stroke-width="1"
     opacity="1"
     d="m 712.00131,407.50389 -1,2 z"
     id="path151" />
  <path
     fill="#fff6de"
     stroke="#fff6de"
     stroke-width="1"
     opacity="1"
     d="m 710.00131,410.50389 -2,3 z"
     id="path152" />
  <path
     fill="#fff6de"
     stroke="#fff6de"
     stroke-width="1"
     opacity="1"
     d="m 473.00131,411.50389 1,2 z"
     id="path153" />
  <path
     fill="#fff6de"
     stroke="#fff6de"
     stroke-width="1"
     opacity="1"
     d="m 706.00131,415.50389 -8,9 z"
     id="path154" />
  <path
     fill="#fff6de"
     stroke="#fff6de"
     stroke-width="1"
     opacity="1"
     d="m 477.00131,416.50389 7,8 z"
     id="path155" />
  <path
     fill="#fff6de"
     stroke="#fff6de"
     stroke-width="1"
     opacity="1"
     d="m 17.001307,418.50389 1,2 z"
     id="path156" />
  <path
     fill="#fff6de"
     stroke="#fff6de"
     stroke-width="1"
     opacity="1"
     d="m 835.00131,420.50389 2.5,3.5 -2,-1 z"
     id="path157" />
  <path
     fill="#fff6de"
     stroke="#fff6de"
     stroke-width="1"
     opacity="1"
     d="m 409.00131,423.50389 0.5,2.5 h -1 z"
     id="path158" />
  <path
     fill="#fff6de"
     stroke="#fff6de"
     stroke-width="1"
     opacity="1"
     d="m 21.001307,424.50389 2,3 z"
     id="path159" />
  <path
     fill="#fff6de"
     stroke="#fff6de"
     stroke-width="1"
     opacity="1"
     d="m 487.00131,425.50389 1,2 z"
     id="path160" />
  <path
     fill="#fff6de"
     stroke="#fff6de"
     stroke-width="1"
     opacity="1"
     d="m 695.00131,425.50389 -2,3 z"
     id="path161" />
  <path
     fill="#fff6de"
     stroke="#fff6de"
     stroke-width="1"
     opacity="1"
     d="m 26.001307,429.50389 3,4 z"
     id="path162" />
  <path
     fill="#fff6de"
     stroke="#fff6de"
     stroke-width="1"
     opacity="1"
     d="m 496.00131,431.50389 1,2 z"
     id="path163" />
  <path
     fill="#fff6de"
     stroke="#fff6de"
     stroke-width="1"
     opacity="1"
     d="m 686.00131,431.50389 -1,2 z"
     id="path164" />
  <path
     fill="#fff6de"
     stroke="#fff6de"
     stroke-width="1"
     opacity="1"
     d="m 986.00131,431.50389 -1,2 z"
     id="path165" />
  <path
     fill="#fff6de"
     stroke="#fff6de"
     stroke-width="1"
     opacity="1"
     d="m 842.00131,433.50389 1,2 z"
     id="path166" />
  <path
     fill="#fff6de"
     stroke="#fff6de"
     stroke-width="1"
     opacity="1"
     d="m 34.001307,435.50389 1,2 z"
     id="path167" />
  <path
     fill="#fff6de"
     stroke="#fff6de"
     stroke-width="1"
     opacity="1"
     d="m 982.00131,438.50389 -1,2 z"
     id="path168" />
  <path
     fill="#fff6de"
     stroke="#fff6de"
     stroke-width="1"
     opacity="1"
     d="m 405.00131,442.50389 0.5,2.5 -1.5,1.5 h -177 v -1 h 177 z"
     id="path169" />
  <path
     fill="#fff6de"
     stroke="#fff6de"
     stroke-width="1"
     opacity="1"
     d="m 847.00131,442.50389 1,2 z"
     id="path170" />
  <path
     fill="#fff6de"
     stroke="#fff6de"
     stroke-width="1"
     opacity="1"
     d="m 55.001307,443.50389 3.5,0.5 -3.5,0.5 z"
     id="path171" />
  <path
     fill="#fff6de"
     stroke="#fff6de"
     stroke-width="1"
     opacity="1"
     d="m 531.00131,443.50389 3.5,0.5 -3.5,0.5 z"
     id="path172" />
  <path
     fill="#fff6de"
     stroke="#fff6de"
     stroke-width="1"
     opacity="1"
     d="m 649.00131,443.50389 2.5,0.5 -2.5,0.5 z"
     id="path173" />
  <path
     fill="#fff6de"
     stroke="#fff6de"
     stroke-width="1"
     opacity="1"
     d="m 65.001307,444.50389 6.5,0.5 -6.5,0.5 z"
     id="path174" />
  <path
     fill="#fff6de"
     stroke="#fff6de"
     stroke-width="1"
     opacity="1"
     d="m 538.00131,444.50389 5.5,0.5 -5.5,0.5 z"
     id="path175" />
  <path
     fill="#fff6de"
     stroke="#fff6de"
     stroke-width="1"
     opacity="1"
     d="m 639.00131,444.50389 5.5,0.5 -5.5,0.5 z"
     id="path176" />
  <path
     fill="#fff6de"
     stroke="#fff6de"
     stroke-width="1"
     opacity="1"
     d="m 82.001307,445.50389 116.500003,0.5 -116.500003,0.5 z"
     id="path177" />
  <path
     fill="#fff6de"
     stroke="#fff6de"
     stroke-width="1"
     opacity="1"
     d="m 552.00131,445.50389 78.5,0.5 -78.5,0.5 z"
     id="path178" />
  <path
     fill="#fff6de"
     stroke="#fff6de"
     stroke-width="1"
     opacity="1"
     d="m 849.00131,445.50389 129.5,0.5 -129.5,0.5 z"
     id="path179" />
</svg>
